<svg width="179" height="172" viewBox="0 0 179 172" fill="none" xmlns="http://www.w3.org/2000/svg">
<path d="M7.733 146.305C7.733 147.875 9.0189 149.16 10.5905 149.16H165.113C166.684 149.16 167.97 147.875 167.97 146.305L169.256 57.5055C169.256 55.9354 167.406 52.8701 164.016 53.1005L12.9997 49.193C11.0278 49.142 9.12122 49.901 7.72477 51.2928C6.32832 52.6846 5.56427 54.5877 5.6109 56.5578L7.733 146.305Z" fill="url(#paint0_linear_2016_1380)"/>
<path d="M10.554 143.566C10.554 145.053 11.7705 146.27 13.2574 146.27H161.386C162.873 146.27 164.089 145.053 164.089 143.566L165.303 62.9532C165.16 58.1021 160.907 56.3586 158.329 56.4615L13.5936 52.5785C12.2082 52.5413 10.8688 53.0751 9.88758 54.0538C8.90635 55.0325 8.3667 56.3719 8.40149 57.7573L10.554 143.566Z" fill="#91B3FA"/>
<path d="M162.489 105.269C162.487 105.269 162.485 105.269 162.483 105.269C162.264 105.266 162.089 105.086 162.093 104.867L162.189 98.3297C162.192 98.1131 162.368 97.9394 162.584 97.9394C162.586 97.9394 162.588 97.9394 162.59 97.9394C162.809 97.9426 162.984 98.1225 162.981 98.3416L162.885 104.879C162.882 105.096 162.705 105.269 162.489 105.269Z" fill="url(#paint1_linear_2016_1380)"/>
<path d="M162.724 89.249C162.722 89.249 162.72 89.249 162.718 89.249C162.499 89.2458 162.325 89.0655 162.328 88.8468L162.696 63.8077C162.689 62.3204 162.237 61.1329 161.354 60.2862C159.704 58.706 157.085 58.7867 156.975 58.7918L110.715 57.5513C110.496 57.5458 110.323 57.3634 110.329 57.1448C110.335 56.9261 110.503 56.7398 110.736 56.7596L156.969 58.0001C157.257 57.9831 160.045 57.9348 161.902 59.7139C162.946 60.7148 163.48 62.0938 163.488 63.8116L163.12 88.8586C163.117 89.0753 162.94 89.249 162.724 89.249Z" fill="url(#paint2_linear_2016_1380)"/>
<path d="M0.913134 157.325H175.367C175.564 157.325 175.725 157.164 175.725 156.967V149.087C175.725 148.89 175.564 148.729 175.367 148.729H0.913134C0.716104 148.729 0.554932 148.89 0.554932 149.087V156.967C0.554932 157.164 0.716104 157.325 0.913134 157.325Z" fill="url(#paint3_linear_2016_1380)"/>
<g opacity="0.64">
<path d="M136.347 50.7362C136.329 50.7362 136.311 50.7353 136.293 50.7334C135.997 50.7034 135.782 50.44 135.812 50.1449C135.841 49.8643 135.866 49.5838 135.887 49.3035C135.909 49.0076 136.167 48.7885 136.462 48.8081C136.758 48.8303 136.98 49.088 136.958 49.3838C136.936 49.6737 136.91 49.9633 136.881 50.2533C136.853 50.5299 136.62 50.7362 136.347 50.7362Z" fill="white"/>
<path d="M100.463 82.0457C100.456 82.0457 100.45 82.0456 100.443 82.0454C99.8641 82.0249 99.2778 81.9897 98.7009 81.9407C98.4053 81.9156 98.1861 81.6556 98.2112 81.36C98.2364 81.0644 98.4942 80.8463 98.7919 80.8704C99.3512 80.918 99.9195 80.9521 100.481 80.9719C100.778 80.9824 101.009 81.2311 100.999 81.5275C100.989 81.8176 100.75 82.0457 100.463 82.0457ZM103.254 82.0311C102.969 82.0311 102.731 81.8063 102.718 81.5183C102.705 81.222 102.934 80.971 103.23 80.9576C103.789 80.9323 104.357 80.8925 104.917 80.8391C105.215 80.8114 105.475 81.0277 105.503 81.3228C105.531 81.6181 105.314 81.8802 105.019 81.9083C104.441 81.9634 103.855 82.0045 103.279 82.0306C103.271 82.0309 103.262 82.0311 103.254 82.0311ZM95.976 81.5936C95.9466 81.5936 95.9169 81.5912 95.8869 81.5861C95.3151 81.4905 94.7385 81.3792 94.1728 81.2553C93.8831 81.1918 93.6997 80.9056 93.7631 80.6159C93.8266 80.3261 94.1117 80.1428 94.4027 80.2062C94.9508 80.3261 95.5099 80.4341 96.064 80.5267C96.3566 80.5757 96.554 80.8524 96.5052 81.1451C96.4613 81.4075 96.2336 81.5936 95.976 81.5936ZM107.734 81.5347C107.478 81.5347 107.252 81.3515 107.206 81.0911C107.154 80.799 107.349 80.5204 107.641 80.4688C108.193 80.3713 108.751 80.2584 109.299 80.1332C109.59 80.0674 109.877 80.2482 109.943 80.5373C110.008 80.8265 109.828 81.1144 109.539 81.1804C108.973 81.3094 108.397 81.4258 107.828 81.5265C107.797 81.532 107.765 81.5347 107.734 81.5347ZM91.5864 80.5614C91.5345 80.5614 91.4817 80.5538 91.4294 80.5379C90.8762 80.3692 90.3191 80.1842 89.7732 79.9878C89.4942 79.8874 89.3495 79.5797 89.4498 79.3007C89.5502 79.0216 89.8576 78.8769 90.137 78.9771C90.6661 79.1676 91.2065 79.347 91.7429 79.5105C92.0265 79.5969 92.1864 79.8971 92.1 80.1808C92.0292 80.4123 91.8165 80.5614 91.5864 80.5614ZM112.115 80.4649C111.886 80.4649 111.674 80.318 111.602 80.0886C111.514 79.8056 111.671 79.5042 111.954 79.4154C112.49 79.2472 113.029 79.0634 113.555 78.8691C113.834 78.7663 114.143 78.909 114.245 79.1872C114.348 79.4655 114.205 79.7743 113.927 79.8769C113.384 80.0772 112.828 80.2668 112.276 80.4402C112.222 80.4569 112.168 80.4649 112.115 80.4649ZM87.3664 78.9709C87.2925 78.9709 87.2172 78.9555 87.1454 78.923L86.9587 78.8381C86.4928 78.6242 86.0265 78.3981 85.5725 78.1657C85.3086 78.0306 85.2041 77.707 85.3392 77.443C85.4745 77.1789 85.798 77.0747 86.0622 77.2096C86.5025 77.4351 86.9546 77.6544 87.4062 77.8617L87.5881 77.9444C87.8583 78.0666 87.9783 78.3847 87.8562 78.6551C87.7664 78.8535 87.5709 78.9709 87.3664 78.9709ZM116.322 78.8403C116.119 78.8403 115.925 78.7248 115.834 78.5285C115.709 78.2594 115.827 77.9402 116.096 77.8157C116.607 77.5792 117.118 77.3277 117.614 77.0679C117.877 76.9301 118.202 77.0317 118.339 77.2947C118.477 77.5574 118.375 77.882 118.112 78.0194C117.6 78.2874 117.074 78.5468 116.547 78.7905C116.474 78.8244 116.397 78.8403 116.322 78.8403ZM83.3826 76.8544C83.2863 76.8544 83.189 76.8284 83.1011 76.7743C82.6089 76.4708 82.1168 76.15 81.638 75.8211C81.3936 75.6531 81.3315 75.3188 81.4996 75.0743C81.6679 74.8298 82.0022 74.7684 82.2464 74.9359C82.7107 75.2549 83.1879 75.5659 83.665 75.8601C83.9173 76.0159 83.9958 76.3468 83.8401 76.5992C83.7386 76.7637 83.5626 76.8544 83.3826 76.8544ZM120.285 76.688C120.106 76.688 119.932 76.5992 119.83 76.437C119.672 76.186 119.747 75.8545 119.998 75.6964C120.472 75.3978 120.947 75.0825 121.408 74.7591C121.651 74.5892 121.986 74.6477 122.156 74.8905C122.326 75.1333 122.267 75.4682 122.025 75.6385C121.549 75.972 121.06 76.2973 120.57 76.6054C120.481 76.6613 120.383 76.688 120.285 76.688ZM79.7058 74.2416C79.5869 74.2416 79.4669 74.2021 79.3672 74.1211C78.9175 73.7551 78.471 73.3732 78.0405 72.9858C77.8203 72.7873 77.8022 72.4478 78.0007 72.2273C78.1991 72.007 78.5384 71.989 78.7593 72.1873C79.1763 72.5628 79.6091 72.9331 80.0452 73.2878C80.2752 73.475 80.31 73.8134 80.1228 74.0433C80.0167 74.1739 79.8618 74.2416 79.7058 74.2416ZM123.937 74.0418C123.783 74.0418 123.629 73.9755 123.523 73.8473C123.334 73.6189 123.366 73.2804 123.594 73.0911C124.026 72.7336 124.456 72.3593 124.871 71.9786C125.09 71.778 125.43 71.7933 125.63 72.0117C125.83 72.2304 125.815 72.5702 125.597 72.7705C125.168 73.1633 124.725 73.5494 124.279 73.9183C124.179 74.0013 124.058 74.0418 123.937 74.0418ZM76.4011 71.1729C76.2586 71.1729 76.1164 71.1164 76.0107 71.0046C75.6115 70.5821 75.2188 70.1454 74.8434 69.7063C74.6507 69.4809 74.6773 69.1419 74.9026 68.9491C75.1282 68.7568 75.4667 68.7827 75.6599 69.0083C76.0237 69.4339 76.4045 69.8573 76.7915 70.2671C76.9952 70.4826 76.9856 70.8225 76.7699 71.0263C76.666 71.1242 76.5335 71.1729 76.4011 71.1729ZM127.215 70.9429C127.085 70.9429 126.954 70.8955 126.85 70.7995C126.633 70.5977 126.62 70.2578 126.822 70.0405C127.205 69.6279 127.582 69.2007 127.943 68.7705C128.134 68.5435 128.473 68.5139 128.7 68.7046C128.927 68.8954 128.957 69.2341 128.766 69.4613C128.393 69.905 128.004 70.3457 127.609 70.7712C127.503 70.8852 127.36 70.9429 127.215 70.9429ZM130.063 67.4427C129.955 67.4427 129.846 67.4105 129.752 67.3435C129.51 67.1718 129.453 66.8365 129.625 66.5947C129.951 66.1365 130.269 65.6644 130.571 65.1915C130.731 64.9412 131.063 64.8684 131.313 65.0278C131.562 65.1875 131.636 65.5194 131.476 65.7695C131.165 66.2573 130.837 66.7441 130.501 67.2167C130.396 67.3641 130.231 67.4427 130.063 67.4427ZM132.43 63.6056C132.345 63.6056 132.259 63.5854 132.179 63.5428C131.917 63.4037 131.817 63.0785 131.956 62.8166C132.22 62.3207 132.474 61.8113 132.714 61.303C132.84 61.0345 133.16 60.9197 133.428 61.0457C133.696 61.172 133.812 61.4919 133.685 61.7603C133.439 62.2843 133.176 62.8092 132.905 63.3204C132.808 63.502 132.622 63.6056 132.43 63.6056ZM134.287 59.4966C134.224 59.4966 134.16 59.4854 134.098 59.4618C133.82 59.3571 133.68 59.0471 133.785 58.7696C133.983 58.246 134.171 57.7085 134.343 57.172C134.434 56.8898 134.738 56.7347 135.019 56.8254C135.301 56.9163 135.457 57.2188 135.366 57.5012C135.188 58.0544 134.994 58.6088 134.79 59.1491C134.709 59.3641 134.504 59.4966 134.287 59.4966ZM135.603 55.183C135.562 55.183 135.521 55.1784 135.48 55.1686C135.191 55.1006 135.012 54.8115 135.08 54.5228C135.209 53.9761 135.325 53.4188 135.427 52.8666C135.48 52.5748 135.761 52.3818 136.052 52.4351C136.343 52.4886 136.536 52.7685 136.483 53.0602C136.378 53.6299 136.258 54.2049 136.125 54.7688C136.067 55.0162 135.847 55.183 135.603 55.183Z" fill="white"/>
<path d="M73.5168 67.691C73.3504 67.691 73.1864 67.614 73.0815 67.4689C72.9108 67.2333 72.7433 66.9957 72.5788 66.7563C72.4108 66.5118 72.4729 66.1775 72.7175 66.0096C72.9615 65.8417 73.2963 65.9037 73.4641 66.1482C73.6236 66.3803 73.786 66.6105 73.9513 66.839C74.1254 67.0791 74.0717 67.4149 73.8315 67.589C73.7362 67.6578 73.6261 67.691 73.5168 67.691Z" fill="white"/>
</g>
<g opacity="0.64">
<path d="M67.3268 41.6882C67.2982 41.6882 67.2693 41.686 67.2401 41.6812C66.9475 41.6338 66.7487 41.3579 66.796 41.0652C66.8424 40.7786 66.8927 40.492 66.9464 40.206C67.0012 39.9144 67.2838 39.7224 67.5733 39.7772C67.8649 39.8319 68.0568 40.1126 68.002 40.4041C67.95 40.6815 67.9014 40.9592 67.8563 41.237C67.8134 41.5007 67.5856 41.6882 67.3268 41.6882Z" fill="white"/>
<path d="M68.0886 38.1634C68.042 38.1634 67.9948 38.1573 67.9476 38.1445C67.6613 38.0668 67.4924 37.7716 67.5702 37.4855C67.7196 36.9355 67.8845 36.3816 68.0605 35.8391C68.152 35.5571 68.4547 35.4024 68.7371 35.4941C69.0193 35.5855 69.1737 35.8884 69.0822 36.1706C68.9116 36.6965 68.7515 37.2337 68.6066 37.7671C68.5418 38.0062 68.325 38.1634 68.0886 38.1634ZM69.5217 33.963C69.4533 33.963 69.3836 33.9499 69.3165 33.9221C69.0426 33.8087 68.9123 33.4946 69.0258 33.2205C69.1982 32.8035 69.3822 32.3819 69.5723 31.9673C69.6209 31.8612 69.67 31.7556 69.7193 31.6505C69.845 31.3819 70.1649 31.2663 70.4334 31.3921C70.7021 31.518 70.8177 31.8377 70.6919 32.1063C70.6439 32.2089 70.596 32.3119 70.5484 32.4152C70.364 32.8174 70.1855 33.2267 70.018 33.6313C69.9324 33.8381 69.7324 33.963 69.5217 33.963ZM71.4714 29.9766C71.3812 29.9766 71.2899 29.9538 71.2058 29.906C70.9482 29.7591 70.8584 29.4313 71.0052 29.1736C71.2884 28.6766 71.5866 28.1816 71.8914 27.7023C72.0508 27.4521 72.3827 27.3782 72.6327 27.5374C72.883 27.6966 72.9568 28.0284 72.7976 28.2788C72.5023 28.7434 72.2132 29.2233 71.9384 29.7053C71.8393 29.8791 71.6578 29.9766 71.4714 29.9766ZM73.9099 26.2678C73.7974 26.2678 73.684 26.2327 73.5872 26.1598C73.3501 25.9814 73.3029 25.6445 73.4813 25.4077C73.8245 24.9521 74.1841 24.4984 74.5499 24.0592C74.7405 23.8314 75.0786 23.8008 75.3064 23.9906C75.5342 24.1804 75.5651 24.5191 75.3752 24.7469C75.0205 25.1726 74.6718 25.6123 74.3393 26.0539C74.2337 26.1939 74.0729 26.2678 73.9099 26.2678ZM129.2 25.888C129.04 25.888 128.881 25.8165 128.775 25.68C128.437 25.2436 128.083 24.8091 127.723 24.3888C127.53 24.1635 127.556 23.8245 127.781 23.6315C128.006 23.4386 128.346 23.4649 128.538 23.69C128.91 24.1236 129.275 24.5717 129.624 25.0219C129.806 25.2563 129.763 25.5937 129.529 25.7754C129.431 25.8513 129.315 25.888 129.2 25.888ZM76.8048 22.8999C76.6693 22.8999 76.5338 22.8489 76.4293 22.7467C76.2172 22.5394 76.2135 22.1993 76.421 21.9873C76.8195 21.5798 77.2341 21.1763 77.6532 20.7879C77.8705 20.5862 78.2104 20.5993 78.4122 20.8167C78.6138 21.0342 78.6008 21.374 78.3832 21.5756C77.9771 21.9522 77.5752 22.3434 77.1888 22.7384C77.0837 22.8459 76.9441 22.8999 76.8048 22.8999ZM126.261 22.5614C126.124 22.5614 125.987 22.5092 125.882 22.4049C125.491 22.0155 125.084 21.6301 124.673 21.2591C124.452 21.0604 124.435 20.7208 124.634 20.5005C124.833 20.2807 125.172 20.2629 125.392 20.4615C125.816 20.8441 126.236 21.2419 126.64 21.6436C126.85 21.853 126.851 22.193 126.641 22.4031C126.536 22.5086 126.399 22.5614 126.261 22.5614ZM80.1072 19.9313C79.9484 19.9313 79.7913 19.8613 79.6852 19.727C79.5016 19.4941 79.5413 19.1564 79.7741 18.9727C80.2222 18.6192 80.6848 18.272 81.149 17.9411C81.3905 17.7687 81.7257 17.8251 81.8981 18.0667C82.0701 18.3083 82.0139 18.6436 81.7724 18.8157C81.3222 19.1366 80.8739 19.4731 80.4395 19.8159C80.3409 19.8937 80.2237 19.9313 80.1072 19.9313ZM122.919 19.6387C122.805 19.6387 122.69 19.6025 122.593 19.5277C122.153 19.1907 121.7 18.8605 121.246 18.5462C121.002 18.3775 120.941 18.0429 121.11 17.799C121.279 17.5549 121.613 17.4945 121.857 17.663C122.326 17.9873 122.793 18.3278 123.246 18.6755C123.482 18.856 123.526 19.1932 123.345 19.4284C123.24 19.5663 123.08 19.6387 122.919 19.6387ZM83.7604 17.4094C83.5781 17.4094 83.4002 17.3163 83.2995 17.1485C83.1468 16.8942 83.2294 16.5643 83.4837 16.4117C83.9735 16.1179 84.4764 15.8325 84.9781 15.5636C85.2395 15.4236 85.5649 15.5219 85.7051 15.7834C85.8452 16.0448 85.7468 16.3702 85.4854 16.5104C84.9989 16.7711 84.5112 17.0479 84.0362 17.3328C83.9498 17.3846 83.8545 17.4094 83.7604 17.4094ZM119.231 17.1676C119.139 17.1676 119.046 17.1441 118.961 17.0947C118.484 16.8171 117.992 16.5472 117.5 16.2922C117.237 16.1556 117.134 15.8315 117.271 15.5683C117.407 15.305 117.731 15.2023 117.995 15.3386C118.502 15.6014 119.009 15.8799 119.501 16.1662C119.757 16.3152 119.844 16.644 119.695 16.9004C119.596 17.0718 119.416 17.1676 119.231 17.1676ZM87.7036 15.372C87.497 15.372 87.3 15.252 87.2117 15.0506C87.0925 14.7789 87.2161 14.4621 87.4878 14.343C88.0101 14.1139 88.5448 13.8945 89.0769 13.6912C89.3551 13.5853 89.6647 13.7242 89.7702 14.0011C89.8762 14.2782 89.7375 14.5886 89.4604 14.6945C88.9443 14.8917 88.4257 15.1043 87.9191 15.3266C87.849 15.3574 87.7758 15.372 87.7036 15.372ZM115.259 15.1829C115.189 15.1829 115.118 15.1693 115.049 15.1402C114.541 14.9249 114.02 14.7188 113.501 14.5278C113.223 14.4254 113.08 14.1167 113.182 13.8383C113.285 13.5598 113.593 13.4171 113.872 13.5198C114.407 13.7168 114.944 13.9293 115.468 14.1514C115.742 14.2671 115.869 14.5822 115.753 14.8554C115.667 15.06 115.468 15.1829 115.259 15.1829ZM91.872 13.85C91.64 13.85 91.426 13.6985 91.357 13.4646C91.2733 13.1802 91.4359 12.8815 91.7203 12.7978C92.2674 12.6365 92.8255 12.4866 93.3789 12.3523C93.6673 12.2821 93.9575 12.4593 94.0275 12.7475C94.0974 13.0357 93.9205 13.3261 93.6323 13.396C93.0957 13.5264 92.5546 13.6718 92.0241 13.8281C91.9734 13.8428 91.9222 13.85 91.872 13.85ZM111.072 13.7142C111.024 13.7142 110.975 13.7076 110.926 13.694C110.394 13.5446 109.851 13.4063 109.313 13.283C109.024 13.2168 108.843 12.9288 108.909 12.6396C108.975 12.3507 109.263 12.1698 109.552 12.236C110.108 12.3632 110.668 12.5058 111.217 12.66C111.502 12.7401 111.669 13.0366 111.589 13.3221C111.522 13.5592 111.307 13.7142 111.072 13.7142ZM96.199 12.868C95.9399 12.868 95.7119 12.6802 95.6695 12.4162C95.6223 12.1234 95.8213 11.8477 96.1142 11.8006C96.6764 11.7102 97.2487 11.6323 97.8154 11.5691C98.1105 11.5352 98.3757 11.7485 98.4086 12.0433C98.4415 12.3381 98.2292 12.6036 97.9345 12.6365C97.3849 12.6979 96.8299 12.7734 96.285 12.8611C96.256 12.8657 96.2273 12.868 96.199 12.868ZM106.732 12.7906C106.706 12.7906 106.68 12.7887 106.653 12.7848C106.107 12.7047 105.551 12.6372 105 12.5839C104.705 12.5554 104.489 12.2929 104.517 11.9977C104.546 11.7025 104.81 11.4864 105.104 11.5148C105.672 11.5697 106.245 11.6395 106.809 11.7221C107.102 11.7651 107.305 12.0379 107.262 12.3314C107.223 12.5984 106.994 12.7906 106.732 12.7906ZM100.616 12.4434C100.327 12.4434 100.089 12.2141 100.079 11.9234C100.07 11.627 100.302 11.379 100.599 11.3696C101.168 11.3513 101.744 11.347 102.317 11.3566C102.613 11.3616 102.85 11.606 102.845 11.9025C102.839 12.1991 102.598 12.4439 102.299 12.4306C101.744 12.4216 101.185 12.4257 100.633 12.443C100.627 12.4433 100.622 12.4434 100.616 12.4434Z" fill="white"/>
<path d="M131.263 28.8546C131.083 28.8546 130.907 28.7645 130.806 28.6006C130.657 28.3613 130.506 28.1238 130.351 27.888C130.189 27.6399 130.258 27.307 130.506 27.1444C130.754 26.9817 131.086 27.0507 131.249 27.299C131.409 27.5423 131.565 27.7874 131.719 28.0344C131.875 28.2864 131.797 28.6175 131.545 28.7738C131.457 28.8285 131.359 28.8546 131.263 28.8546Z" fill="white"/>
</g>
<path d="M126.008 35.557C125.951 35.388 125.793 35.2735 125.615 35.2719L120.53 35.2275C119.282 33.2071 117.703 31.3711 115.821 29.8113L116.48 24.7722C116.503 24.5954 116.411 24.4235 116.252 24.344L110.792 21.6246C110.632 21.5451 110.44 21.5757 110.313 21.7005L106.688 25.2625C104.309 24.7007 101.892 24.5463 99.5278 24.7674L96.4285 20.7356C96.3198 20.5943 96.1335 20.5375 95.9645 20.5941L90.1807 22.532C90.0116 22.5887 89.8971 22.7464 89.8956 22.9246L89.8511 28.0097C87.8307 29.2578 85.9948 30.8372 84.435 32.7188L79.3958 32.0599C79.219 32.0367 79.0471 32.1283 78.9676 32.2879L76.2482 37.748C76.1687 37.9076 76.1992 38.1 76.3242 38.2271L79.8862 41.852C79.3243 44.2305 79.1699 46.6473 79.3911 49.0118L75.3592 52.1112C75.218 52.2198 75.1611 52.4062 75.2177 52.5751L77.1557 58.3589C77.2123 58.528 77.37 58.6424 77.5483 58.644L82.6334 58.6884C83.8815 60.7089 85.4609 62.5448 87.3425 64.1046L86.6835 69.1438C86.6604 69.3205 86.7519 69.4925 86.9115 69.572L92.3717 72.2914C92.5312 72.3709 92.7236 72.3404 92.8508 72.2154L96.4756 68.6534C98.8541 69.2154 101.271 69.3696 103.636 69.1485L106.735 73.1802C106.843 73.3217 107.03 73.3785 107.199 73.3218L112.983 71.3838C113.152 71.3271 113.266 71.1696 113.268 70.9912L113.312 65.9061C115.333 64.658 117.169 63.0786 118.728 61.1971L123.768 61.856C123.944 61.8792 124.116 61.7876 124.196 61.628L126.915 56.1679C126.995 56.0083 126.964 55.8159 126.839 55.6888L123.277 52.0639C123.839 49.6854 123.993 47.2686 123.772 44.904L127.804 41.8047C127.945 41.6961 128.002 41.5098 127.946 41.3407L126.008 35.557Z" fill="#F3B51B"/>
<path d="M101.593 52.6985C101.183 52.6985 100.769 52.6542 100.359 52.5646C98.8609 52.2379 97.5802 51.3475 96.7524 50.0575C95.9244 48.7675 95.6485 47.2323 95.9751 45.7347C96.302 44.2372 97.1923 42.9564 98.4822 42.1285C99.7724 41.3006 101.308 41.0243 102.805 41.3513C104.303 41.678 105.583 42.5683 106.411 43.8584C107.239 45.1484 107.515 46.6836 107.188 48.1812C106.862 49.6787 105.971 50.9594 104.681 51.7874C103.745 52.3883 102.68 52.6985 101.593 52.6985ZM101.572 41.8621C100.607 41.8621 99.6615 42.1373 98.8302 42.6708C97.6853 43.4058 96.8948 44.5428 96.6049 45.8721C96.3147 47.2015 96.5598 48.5643 97.2946 49.7095C98.0295 50.8545 99.1665 51.6449 100.496 51.935C101.825 52.2252 103.188 51.98 104.333 51.245C105.478 50.5101 106.269 49.3731 106.559 48.0438C106.849 46.7143 106.604 45.3516 105.869 44.2064C105.134 43.0614 103.997 42.271 102.668 41.9809C102.303 41.9013 101.936 41.8621 101.572 41.8621Z" fill="#BDD0FB"/>
<path d="M101.438 62.0487C99.1875 62.0489 96.9049 61.5424 94.7571 60.4727C89.4811 57.8449 86.4235 52.5148 86.4231 46.9859C86.4229 44.7351 86.9293 42.4515 87.999 40.3037C89.7901 36.7075 92.8745 34.024 96.6839 32.7477C100.492 31.4711 104.571 31.7543 108.168 33.5457C108.176 33.5495 108.183 33.5531 108.19 33.5569C108.191 33.5572 108.192 33.5576 108.193 33.558C108.194 33.5587 108.195 33.5594 108.197 33.5602C109.147 34.0358 110.045 34.61 110.868 35.2676C110.947 35.3312 110.989 35.4248 110.989 35.5193C110.989 35.5899 110.966 35.6611 110.918 35.7205C110.807 35.8595 110.604 35.8822 110.465 35.7711C109.67 35.1353 108.8 34.5807 107.881 34.1226C104.438 32.4082 100.535 32.1372 96.8887 33.3587C93.2425 34.5805 90.2902 37.149 88.5759 40.5911C87.5519 42.6468 87.0673 44.8326 87.0673 46.9868C87.0678 52.279 89.9944 57.3807 95.0445 59.8958C102.15 63.4347 110.81 60.5331 114.349 53.4273C115.346 51.4266 115.861 49.2302 115.862 47.0155C115.862 46.6442 115.848 46.2724 115.819 45.9009C115.818 45.8923 115.817 45.8837 115.817 45.8751C115.818 45.7087 115.946 45.5678 116.115 45.5545C116.29 45.5405 116.447 45.6732 116.461 45.8508C116.491 46.2389 116.506 46.6274 116.506 47.0153C116.506 49.3297 115.967 51.6244 114.926 53.7147C112.298 58.9907 106.967 62.0483 101.438 62.0487Z" fill="#BDD0FB"/>
<path d="M152.342 9.93706L150.037 10.1001C149.399 9.22984 148.617 8.45509 147.709 7.81629L147.826 5.51001C147.83 5.42911 147.782 5.35454 147.707 5.32426L145.136 4.28906C145.061 4.25884 144.975 4.27962 144.922 4.34075L143.408 6.08476C142.31 5.91592 141.21 5.93303 140.147 6.1184L138.598 4.40373C138.544 4.34367 138.457 4.3246 138.383 4.35634L135.832 5.44248C135.758 5.47422 135.712 5.54974 135.718 5.63058L135.881 7.93558C135.01 8.57375 134.236 9.35528 133.597 10.2637L131.29 10.1468C131.209 10.1426 131.135 10.1904 131.105 10.2655L130.069 12.8367C130.039 12.9118 130.06 12.9979 130.121 13.051L131.865 14.5647C131.696 15.6624 131.713 16.7626 131.899 17.8258L130.184 19.3749C130.124 19.4292 130.105 19.5157 130.137 19.5902L131.223 22.1402C131.255 22.2148 131.33 22.2609 131.411 22.2552L133.716 22.0922C134.354 22.9625 135.136 23.7373 136.044 24.376L135.927 26.6824C135.923 26.7632 135.971 26.8379 136.046 26.8682L138.617 27.9034C138.692 27.9336 138.778 27.9129 138.831 27.8517L140.345 26.1076C141.443 26.2765 142.543 26.2594 143.606 26.074L145.155 27.7887C145.209 27.8488 145.296 27.8678 145.37 27.8361L147.92 26.7499C147.995 26.7182 148.041 26.6427 148.035 26.5618L147.872 24.2568C148.743 23.6187 149.517 22.8371 150.156 21.9287L152.463 22.0456C152.543 22.0498 152.618 22.0021 152.648 21.9269L153.683 19.3558C153.714 19.2806 153.693 19.1946 153.632 19.1414L151.888 17.6277C152.056 16.5301 152.039 15.4298 151.854 14.3667L153.569 12.8176C153.629 12.7633 153.648 12.6769 153.616 12.6023L152.53 10.0522C152.498 9.97761 152.423 9.93136 152.342 9.93706Z" fill="#F3B51B"/>
<path opacity="0.56" d="M141.878 18.7723C141.758 18.7723 141.637 18.7642 141.515 18.7475C140.807 18.651 140.179 18.2844 139.746 17.7154C139.313 17.1464 139.128 16.4429 139.225 15.7347C139.322 15.0264 139.688 14.3983 140.257 13.9657C140.826 13.5331 141.53 13.3477 142.238 13.4447C143.7 13.6439 144.727 14.9955 144.528 16.4575C144.345 17.7975 143.195 18.7723 141.878 18.7723ZM141.872 13.8494C141.384 13.8494 140.912 14.0076 140.517 14.3077C140.039 14.6709 139.732 15.1983 139.651 15.7928C139.483 17.02 140.346 18.1546 141.573 18.3219C142.167 18.4029 142.758 18.2475 143.236 17.8845C143.713 17.5214 144.021 16.994 144.102 16.3995C144.269 15.1723 143.407 14.0377 142.18 13.8704C142.077 13.8563 141.974 13.8494 141.872 13.8494Z" fill="white"/>
<g opacity="0.64">
<path d="M156.546 14.2477C156.287 14.2477 156.059 14.0599 156.016 13.7961C155.973 13.5264 155.92 13.2531 155.86 12.9838C155.796 12.6943 155.978 12.4074 156.267 12.3429C156.558 12.2782 156.844 12.4608 156.909 12.7503C156.973 13.0401 157.03 13.3344 157.076 13.6251C157.124 13.9179 156.925 14.1936 156.632 14.2408C156.603 14.2454 156.574 14.2477 156.546 14.2477Z" fill="white"/>
<path d="M141.896 31.4939H141.895C141.297 31.4939 140.691 31.4585 140.093 31.3886C139.799 31.3542 139.588 31.0875 139.622 30.7929C139.657 30.4985 139.923 30.2865 140.218 30.3219C140.774 30.3869 141.338 30.4198 141.895 30.4198C142.191 30.4198 142.432 30.6603 142.432 30.9569C142.432 31.2535 142.192 31.4939 141.896 31.4939ZM144.711 31.2231C144.459 31.2231 144.234 31.0449 144.185 30.7882C144.128 30.4971 144.318 30.2152 144.609 30.1588C145.156 30.0526 145.703 29.9124 146.236 29.742C146.519 29.6519 146.821 29.8073 146.911 30.0896C147.001 30.3721 146.846 30.6745 146.563 30.7649C145.991 30.9483 145.402 31.0991 144.814 31.2132C144.779 31.2198 144.745 31.2231 144.711 31.2231ZM137.389 30.8009C137.335 30.8009 137.281 30.7929 137.227 30.7759C136.654 30.5952 136.086 30.3785 135.539 30.1318C135.269 30.0099 135.149 29.6919 135.27 29.4215C135.392 29.1511 135.711 29.031 135.981 29.1528C136.489 29.382 137.017 29.5836 137.55 29.7516C137.833 29.8408 137.99 30.1425 137.901 30.4253C137.829 30.6544 137.617 30.8009 137.389 30.8009ZM148.999 29.675C148.809 29.675 148.625 29.574 148.528 29.3955C148.385 29.1354 148.481 28.809 148.741 28.6666C149.23 28.399 149.71 28.0993 150.165 27.7758C150.407 27.6044 150.742 27.6608 150.914 27.9028C151.086 28.1447 151.029 28.4799 150.787 28.6517C150.297 28.9992 149.782 29.3213 149.257 29.609C149.175 29.6537 149.086 29.675 148.999 29.675ZM152.617 26.902C152.483 26.902 152.35 26.8524 152.246 26.7527C152.031 26.5476 152.024 26.2076 152.229 25.9934C152.616 25.5901 152.982 25.1597 153.318 24.7142C153.497 24.4774 153.834 24.4302 154.071 24.6089C154.307 24.7877 154.354 25.1244 154.176 25.3611C153.814 25.8401 153.42 26.3029 153.005 26.7364C152.899 26.8465 152.758 26.902 152.617 26.902ZM155.227 23.1638C155.148 23.1638 155.068 23.1463 154.992 23.1091C154.725 22.9787 154.615 22.6571 154.745 22.3907C154.99 21.8899 155.208 21.3683 155.393 20.8402C155.491 20.5605 155.797 20.4127 156.077 20.5106C156.357 20.6086 156.505 20.915 156.407 21.1949C156.208 21.7627 155.974 22.3238 155.71 22.8625C155.617 23.053 155.426 23.1638 155.227 23.1638ZM156.576 18.8079C156.55 18.8079 156.524 18.806 156.498 18.8021C156.204 18.7591 156.001 18.4863 156.044 18.1928L156.067 18.0312C156.135 17.5294 156.178 17.0207 156.193 16.5181C156.203 16.2218 156.44 15.9895 156.747 15.9977C157.043 16.0069 157.276 16.2546 157.267 16.551C157.25 17.0909 157.205 17.6375 157.131 18.1755L157.107 18.3486C157.068 18.6157 156.838 18.8079 156.576 18.8079Z" fill="white"/>
<path d="M133.297 28.7688C133.189 28.7688 133.081 28.7368 132.987 28.6701C132.746 28.4999 132.507 28.3199 132.276 28.1348C132.044 27.9497 132.006 27.6117 132.191 27.38C132.377 27.1485 132.715 27.1103 132.946 27.2959C133.161 27.4679 133.384 27.6352 133.607 27.7934C133.849 27.9648 133.907 28.2999 133.735 28.542C133.631 28.6899 133.465 28.7688 133.297 28.7688Z" fill="white"/>
</g>
<g opacity="0.64">
<path d="M127.147 18.6249C126.882 18.6249 126.652 18.4292 126.616 18.1597C126.576 17.8669 126.545 17.569 126.523 17.274C126.5 16.9782 126.722 16.7204 127.018 16.698C127.309 16.6783 127.571 16.8974 127.594 17.1932C127.614 17.4672 127.643 17.744 127.68 18.016C127.72 18.3099 127.514 18.5803 127.22 18.6201C127.195 18.6233 127.171 18.6249 127.147 18.6249Z" fill="white"/>
<path d="M127.109 14.987C127.09 14.987 127.069 14.9859 127.049 14.9837C126.754 14.9507 126.542 14.685 126.575 14.3903C126.589 14.2661 126.605 14.1417 126.621 14.0171C126.684 13.5538 126.769 13.0906 126.872 12.6398C126.939 12.3509 127.225 12.1692 127.516 12.2365C127.805 12.3028 127.986 12.5909 127.919 12.88C127.823 13.2993 127.745 13.7307 127.686 14.1619C127.67 14.2778 127.656 14.3938 127.643 14.5096C127.612 14.7842 127.379 14.987 127.109 14.987ZM128.269 10.6546C128.197 10.6546 128.124 10.6401 128.053 10.6092C127.782 10.49 127.658 10.1731 127.777 9.9016C128.015 9.36081 128.287 8.82806 128.585 8.31826C128.735 8.06212 129.064 7.97665 129.32 8.12623C129.576 8.27612 129.662 8.60506 129.512 8.86101C129.234 9.33509 128.982 9.83039 128.761 10.3334C128.673 10.5346 128.476 10.6546 128.269 10.6546ZM130.675 6.86796C130.549 6.86796 130.423 6.82431 130.321 6.73536C130.098 6.54029 130.075 6.20103 130.27 5.97764C130.659 5.53309 131.077 5.10634 131.514 4.7093C131.734 4.50961 132.073 4.52627 132.272 4.74547C132.472 4.965 132.456 5.30463 132.236 5.50414C131.83 5.87355 131.44 6.27059 131.079 6.68417C130.973 6.80575 130.824 6.86796 130.675 6.86796ZM134.1 3.97129C133.92 3.97129 133.744 3.88038 133.642 3.71547C133.487 3.46287 133.566 3.13204 133.818 2.97669C134.321 2.66759 134.847 2.3844 135.382 2.13504C135.65 2.00941 135.97 2.12592 136.095 2.39473C136.221 2.66347 136.104 2.98303 135.836 3.10841C135.338 3.34041 134.849 3.6039 134.381 3.89153C134.294 3.94557 134.196 3.97129 134.1 3.97129ZM148.655 3.40611C148.572 3.40611 148.488 3.3871 148.41 3.34693C147.922 3.09669 147.413 2.87229 146.898 2.68014C146.62 2.57643 146.479 2.26707 146.583 1.98913C146.687 1.71107 146.997 1.57062 147.274 1.67382C147.828 1.88054 148.375 2.1218 148.9 2.39099C149.164 2.52631 149.268 2.84986 149.133 3.11392C149.038 3.29942 148.85 3.40611 148.655 3.40611ZM138.229 2.22475C137.989 2.22475 137.771 2.06281 137.709 1.81953C137.636 1.53203 137.81 1.23991 138.098 1.16699C138.671 1.02184 139.258 0.908823 139.843 0.831341C140.138 0.793455 140.407 0.999164 140.446 1.29319C140.485 1.58722 140.278 1.85717 139.984 1.89619C139.44 1.96829 138.894 2.07314 138.362 2.20815C138.318 2.21936 138.273 2.22475 138.229 2.22475ZM144.399 1.98977C144.369 1.98977 144.338 1.98723 144.308 1.98197C144.143 1.95378 143.977 1.92825 143.81 1.9055C143.43 1.85368 143.045 1.81668 142.664 1.79527C142.368 1.77861 142.142 1.52507 142.158 1.22895C142.175 0.932961 142.425 0.708877 142.725 0.722815C143.133 0.745812 143.547 0.785663 143.956 0.841225C144.135 0.865679 144.312 0.893046 144.489 0.923139C144.781 0.973189 144.978 1.25074 144.928 1.54306C144.883 1.80484 144.656 1.98977 144.399 1.98977Z" fill="white"/>
<path d="M151.67 5.45619C151.544 5.45619 151.417 5.41222 151.315 5.32277C151.109 5.1417 150.895 4.96412 150.678 4.79484C150.444 4.61244 150.402 4.27489 150.585 4.04112C150.767 3.80753 151.105 3.76565 151.339 3.94817C151.572 4.13006 151.802 4.32095 152.024 4.51551C152.247 4.71121 152.269 5.05053 152.073 5.27348C151.967 5.39442 151.819 5.45619 151.67 5.45619Z" fill="white"/>
</g>
<path opacity="0.56" d="M141.878 23.0029C141.005 23.0029 140.132 22.8352 139.299 22.4996C136.61 21.4171 134.973 18.8227 134.973 16.0875C134.973 15.2307 135.134 14.3603 135.473 13.518C136.162 11.8075 137.475 10.4676 139.172 9.74511C140.868 9.0225 142.744 9.00375 144.455 9.69247C144.632 9.7638 144.806 9.84243 144.976 9.92795C145.189 10.0343 145.395 10.1513 145.594 10.2782C145.597 10.2804 145.601 10.2827 145.605 10.2849C145.654 10.3167 145.704 10.3491 145.752 10.3821C145.814 10.4238 145.847 10.4916 145.847 10.5605C145.847 10.6019 145.835 10.6437 145.81 10.6805C145.743 10.779 145.61 10.8045 145.511 10.7379C145.132 10.4812 144.723 10.2635 144.294 10.0911C144.18 10.0452 144.066 10.0028 143.951 9.96362C142.958 9.62639 141.915 9.53725 140.898 9.69437C140.895 9.69481 140.893 9.69519 140.89 9.69551C140.89 9.6957 140.889 9.6957 140.888 9.69595C140.885 9.6964 140.883 9.69671 140.881 9.69709C140.88 9.69709 140.88 9.69709 140.88 9.69709C140.398 9.77305 139.921 9.90445 139.458 10.0913C139.453 10.0934 139.448 10.0956 139.442 10.0977C139.431 10.1025 139.419 10.1074 139.407 10.1122C139.384 10.1215 139.362 10.1308 139.34 10.1404C137.749 10.818 136.517 12.0744 135.872 13.6784C135.557 14.4601 135.4 15.2786 135.4 16.0966C135.4 16.9572 135.573 17.8171 135.921 18.6327C136.599 20.2235 137.855 21.4553 139.459 22.101C141.063 22.7469 142.823 22.7295 144.413 22.0517C146.004 21.3742 147.236 20.1176 147.881 18.5136C148.193 17.7406 148.351 16.9192 148.351 16.0955C148.351 15.759 148.325 15.4219 148.272 15.0878C148.27 15.0763 148.269 15.065 148.269 15.0538C148.269 14.95 148.344 14.8587 148.45 14.8419C148.569 14.8237 148.677 14.9033 148.696 15.0205C148.753 15.377 148.781 15.7364 148.781 16.0953C148.781 16.9739 148.612 17.8498 148.28 18.6741C147.591 20.3845 146.278 21.7245 144.582 22.447C143.712 22.8174 142.795 23.0028 141.878 23.0029Z" fill="white"/>
<g opacity="0.64">
<path d="M82.6465 74.1496C82.4603 74.1496 82.279 74.0523 82.1798 73.8789C82.0396 73.6335 81.8969 73.3901 81.7516 73.1487C81.5987 72.8946 81.6805 72.5646 81.9345 72.4116C82.189 72.2588 82.5189 72.3404 82.6717 72.5947C82.8213 72.8431 82.9681 73.0935 83.1125 73.346C83.2595 73.6035 83.1702 73.9315 82.9125 74.0787C82.8284 74.1267 82.737 74.1496 82.6465 74.1496Z" fill="white"/>
<path d="M49.8812 130.533C49.6418 130.533 49.4027 130.531 49.1641 130.526C48.8675 130.521 48.6317 130.276 48.6373 129.979C48.6432 129.683 48.8924 129.445 49.1847 129.452C49.7353 129.463 50.2881 129.461 50.843 129.447C50.8478 129.446 50.8526 129.446 50.8573 129.446C51.1474 129.446 51.3863 129.678 51.3939 129.969C51.4016 130.266 51.1675 130.513 50.8711 130.52C50.5406 130.529 50.2105 130.533 49.8812 130.533ZM46.4452 130.375C46.4286 130.375 46.412 130.374 46.3952 130.373C45.8301 130.321 45.2595 130.255 44.6994 130.178C44.4057 130.137 44.2003 129.866 44.2408 129.573C44.2813 129.279 44.5498 129.073 44.8462 129.114C45.3904 129.189 45.9447 129.253 46.4939 129.303C46.7892 129.331 47.0066 129.592 46.9793 129.888C46.9537 130.166 46.7196 130.375 46.4452 130.375ZM53.5851 130.35C53.3122 130.35 53.0787 130.143 53.0512 129.866C53.0221 129.571 53.2377 129.308 53.5329 129.279C54.0808 129.225 54.6351 129.157 55.1801 129.079C55.4744 129.038 55.7457 129.241 55.788 129.534C55.8302 129.828 55.6265 130.1 55.333 130.142C54.7723 130.223 54.2023 130.292 53.6386 130.348C53.6206 130.349 53.6027 130.35 53.5851 130.35ZM42.0805 129.711C42.0433 129.711 42.0056 129.707 41.9678 129.699C41.4121 129.581 40.8532 129.448 40.3067 129.306C40.0197 129.231 39.8479 128.937 39.9228 128.65C39.9977 128.363 40.2906 128.191 40.5781 128.266C41.1089 128.405 41.6518 128.533 42.1918 128.649C42.4817 128.71 42.6669 128.996 42.605 129.286C42.5512 129.538 42.3284 129.711 42.0805 129.711ZM57.9469 129.662C57.6996 129.662 57.4772 129.491 57.4224 129.239C57.3595 128.949 57.5435 128.663 57.8332 128.6C58.3707 128.484 58.9131 128.353 59.4458 128.212C59.7321 128.137 60.0265 128.308 60.1022 128.594C60.1779 128.881 60.007 129.175 59.7202 129.251C59.1722 129.396 58.6142 129.53 58.0614 129.65C58.023 129.658 57.9846 129.662 57.9469 129.662ZM62.1986 128.476C61.9754 128.476 61.7671 128.336 61.6907 128.113C61.5944 127.832 61.7438 127.527 62.0242 127.431C62.5458 127.252 63.0692 127.059 63.5802 126.858C63.8563 126.749 64.1682 126.884 64.2769 127.16C64.3856 127.436 64.25 127.748 63.9742 127.857C63.448 128.064 62.9093 128.262 62.3729 128.447C62.3152 128.467 62.2562 128.476 62.1986 128.476ZM66.2824 126.8C66.0824 126.8 65.8905 126.688 65.798 126.496C65.6694 126.229 65.7818 125.908 66.0491 125.779C66.5471 125.54 67.0443 125.287 67.5268 125.027C67.788 124.887 68.1136 124.984 68.2544 125.246C68.3947 125.507 68.297 125.832 68.0358 125.973C67.5391 126.24 67.0274 126.501 66.5149 126.747C66.4397 126.783 66.3604 126.8 66.2824 126.8ZM70.1382 124.656C69.9607 124.656 69.787 124.568 69.6846 124.408C69.5254 124.157 69.5992 123.825 69.8495 123.666C70.3125 123.372 70.7757 123.063 71.2261 122.747C71.4688 122.577 71.8037 122.635 71.974 122.879C72.1444 123.121 72.0854 123.456 71.8425 123.626C71.3789 123.951 70.9025 124.27 70.426 124.573C70.3366 124.629 70.2367 124.656 70.1382 124.656ZM73.7137 122.075C73.5578 122.075 73.4034 122.008 73.2972 121.878C73.1097 121.648 73.1439 121.31 73.3736 121.122C73.8007 120.774 74.2247 120.412 74.6338 120.047C74.8555 119.849 75.1947 119.868 75.3921 120.09C75.5895 120.311 75.5702 120.65 75.3491 120.848C74.928 121.224 74.4919 121.596 74.0529 121.954C73.953 122.036 73.833 122.075 73.7137 122.075ZM76.963 119.092C76.8283 119.092 76.6936 119.041 76.5892 118.94C76.3762 118.734 76.371 118.394 76.5775 118.181C76.9595 117.787 77.3383 117.378 77.704 116.965C77.9009 116.743 78.2404 116.723 78.4621 116.919C78.684 117.116 78.7046 117.455 78.5078 117.678C78.1317 118.102 77.7417 118.523 77.3486 118.928C77.2432 119.037 77.1031 119.092 76.963 119.092ZM79.8433 115.748C79.7296 115.748 79.6148 115.712 79.5175 115.638C79.2819 115.458 79.2371 115.121 79.4172 114.885C79.7522 114.447 80.0812 113.996 80.3952 113.546C80.5648 113.303 80.8995 113.243 81.1429 113.412C81.3862 113.582 81.446 113.917 81.2763 114.16C80.9534 114.623 80.6149 115.087 80.2702 115.538C80.1647 115.676 80.0048 115.748 79.8433 115.748ZM82.3164 112.092C82.223 112.092 82.1285 112.068 82.0424 112.016C81.7874 111.865 81.7036 111.535 81.8553 111.28C82.1368 110.807 82.4114 110.321 82.6713 109.836C82.8115 109.574 83.1371 109.477 83.3983 109.616C83.6599 109.756 83.758 110.082 83.6179 110.343C83.3506 110.842 83.0683 111.342 82.7783 111.829C82.6781 111.998 82.4995 112.092 82.3164 112.092ZM84.3481 108.172C84.2749 108.172 84.2006 108.157 84.1296 108.125C83.8587 108.004 83.7371 107.687 83.8579 107.416C84.0828 106.912 84.2988 106.397 84.5002 105.885C84.6089 105.609 84.9205 105.473 85.1968 105.582C85.4726 105.691 85.6084 106.003 85.4997 106.279C85.2926 106.805 85.0702 107.335 84.8389 107.853C84.7497 108.053 84.5535 108.172 84.3481 108.172ZM85.9085 104.04C85.8554 104.04 85.8015 104.033 85.7483 104.016C85.4651 103.928 85.3073 103.626 85.3956 103.343C85.5596 102.818 85.714 102.281 85.8546 101.747C85.9303 101.46 86.2251 101.289 86.5108 101.365C86.7976 101.44 86.969 101.734 86.8935 102.021C86.7485 102.57 86.5897 103.123 86.4211 103.663C86.3493 103.893 86.1372 104.04 85.9085 104.04ZM86.9744 99.7529C86.9417 99.7529 86.9085 99.7499 86.8752 99.7437C86.5836 99.6891 86.3914 99.4087 86.446 99.1172C86.5469 98.5768 86.6371 98.0252 86.7139 97.4775C86.755 97.1839 87.0248 96.9785 87.3204 97.0203C87.6141 97.0614 87.8188 97.3329 87.7775 97.6267C87.6984 98.1903 87.6057 98.7581 87.5016 99.3145C87.4534 99.5726 87.2278 99.7529 86.9744 99.7529ZM87.5265 95.3702C87.5144 95.3702 87.5022 95.3697 87.49 95.369C87.1941 95.3492 86.9702 95.0932 86.9901 94.7973C87.0266 94.2516 87.0509 93.6945 87.0629 93.1411C87.0692 92.8446 87.3226 92.6052 87.611 92.6156C87.9077 92.6218 88.1428 92.8674 88.1366 93.1639C88.1246 93.7335 88.0994 94.3072 88.0617 94.869C88.0428 95.1527 87.8066 95.3702 87.5265 95.3702ZM87.5585 90.956C87.2744 90.956 87.0374 90.7334 87.0225 90.4466C86.9944 89.8975 86.9531 89.3409 86.9002 88.7923C86.8717 88.497 87.088 88.2346 87.3832 88.2062C87.679 88.177 87.9407 88.394 87.9693 88.6891C88.0239 89.2535 88.0662 89.8263 88.0954 90.3914C88.1105 90.6876 87.8829 90.9401 87.5867 90.9553C87.5771 90.9557 87.5677 90.956 87.5585 90.956ZM87.0739 86.5675C86.8167 86.5675 86.5895 86.3823 86.545 86.1204C86.5037 85.8767 86.46 85.6331 86.4139 85.3891C86.3568 85.0882 86.2961 84.7886 86.232 84.4907C86.1697 84.2006 86.354 83.915 86.6442 83.8526C86.9328 83.7907 87.2196 83.9746 87.2822 84.2647C87.3481 84.5713 87.4103 84.8795 87.4691 85.1893C87.5165 85.4398 87.5614 85.6902 87.604 85.9404C87.6537 86.2328 87.4569 86.5101 87.1645 86.5599C87.1341 86.565 87.1036 86.5675 87.0739 86.5675ZM86.0868 82.2645C85.8542 82.2645 85.6395 82.112 85.5714 81.8774C85.4176 81.349 85.2498 80.8169 85.0723 80.2959C84.9768 80.0151 85.127 79.71 85.4077 79.6144C85.6895 79.5187 85.9936 79.669 86.0891 79.9497C86.2716 80.4859 86.4445 81.0334 86.6026 81.5773C86.6855 81.862 86.5219 82.1601 86.237 82.2429C86.1869 82.2576 86.1366 82.2645 86.0868 82.2645ZM84.6064 78.1057C84.3972 78.1057 84.1984 77.9827 84.1117 77.778C83.8971 77.2715 83.6678 76.7627 83.4303 76.2662C83.3025 75.9986 83.4156 75.6779 83.6833 75.55C83.9506 75.4216 84.2713 75.5352 84.3995 75.8027C84.6439 76.314 84.8797 76.8376 85.1006 77.359C85.2164 77.6321 85.0886 77.9473 84.8155 78.0631C84.7474 78.092 84.6762 78.1057 84.6064 78.1057Z" fill="white"/>
<path d="M37.8016 128.53C37.7443 128.53 37.6858 128.521 37.6285 128.502C37.3535 128.408 37.0798 128.311 36.8072 128.211C36.5288 128.109 36.3858 127.801 36.4877 127.522C36.5898 127.244 36.8984 127.101 37.1768 127.203C37.4414 127.3 37.7076 127.394 37.9746 127.485C38.2555 127.58 38.4055 127.886 38.3098 128.166C38.234 128.39 38.0252 128.53 37.8016 128.53Z" fill="white"/>
</g>
<path opacity="0.64" d="M16.1082 109.489C15.9099 109.489 15.7192 109.379 15.6259 109.189C15.3703 108.669 15.1238 108.137 14.8933 107.607C14.7748 107.335 14.8994 107.019 15.1712 106.9C15.4431 106.782 15.7597 106.906 15.878 107.179C16.102 107.693 16.3414 108.21 16.5896 108.715C16.7205 108.981 16.6108 109.303 16.3446 109.434C16.2685 109.472 16.1877 109.489 16.1082 109.489ZM14.3666 105.331C14.1446 105.331 13.9372 105.192 13.8597 104.971C13.6682 104.424 13.4873 103.866 13.322 103.313C13.2371 103.029 13.3986 102.73 13.6829 102.645C13.9659 102.56 14.2663 102.721 14.3512 103.006C14.5117 103.543 14.6875 104.085 14.8734 104.616C14.9713 104.896 14.8239 105.203 14.5438 105.301C14.4853 105.321 14.4254 105.331 14.3666 105.331ZM13.135 100.995C12.8885 100.995 12.6663 100.824 12.6109 100.573C12.5278 100.197 12.4492 99.8133 12.3768 99.4326C12.3407 99.2426 12.3063 99.053 12.2734 98.8636C12.2224 98.5713 12.4182 98.2933 12.7104 98.2424C13.0015 98.1915 13.2806 98.387 13.3315 98.6794C13.3637 98.8635 13.3972 99.048 13.432 99.2322C13.5023 99.6024 13.5791 99.9757 13.6599 100.342C13.7238 100.631 13.5407 100.918 13.2512 100.982C13.2121 100.991 13.1731 100.995 13.135 100.995ZM12.4227 96.5422C12.15 96.5422 11.9165 96.3354 11.889 96.0584C11.8313 95.4806 11.7865 94.8959 11.7556 94.3205C11.7397 94.0243 11.9668 93.7713 12.2631 93.7554C12.5566 93.74 12.8121 93.9667 12.828 94.2628C12.8582 94.822 12.9019 95.3902 12.9576 95.9518C12.9872 96.2469 12.7718 96.51 12.4766 96.5395C12.4586 96.5414 12.4406 96.5422 12.4227 96.5422ZM12.2457 92.0374C12.2419 92.0374 12.2383 92.0374 12.2345 92.0373C11.9379 92.0312 11.7025 91.7858 11.7086 91.4893C11.7204 90.9124 11.7457 90.3267 11.7841 89.7484C11.8036 89.4525 12.0638 89.2304 12.3554 89.2481C12.6514 89.2677 12.8755 89.5236 12.8557 89.8196C12.8186 90.3814 12.7938 90.9507 12.7823 91.5114C12.7764 91.8041 12.5371 92.0374 12.2457 92.0374ZM12.6096 87.545C12.5845 87.545 12.5591 87.5432 12.5335 87.5395C12.2398 87.4978 12.0355 87.2259 12.0772 86.9322C12.1593 86.3567 12.2551 85.7771 12.3627 85.2098C12.4179 84.9184 12.6988 84.7274 12.9904 84.782C13.2818 84.8373 13.4731 85.1183 13.4179 85.4097C13.3134 85.9609 13.2203 86.524 13.1408 87.0834C13.1027 87.3514 12.8727 87.545 12.6096 87.545ZM13.5121 83.1241C13.4659 83.1241 13.4194 83.1182 13.3728 83.1058C13.0862 83.0291 12.9161 82.7346 12.9929 82.4481C13.1426 81.8885 13.3075 81.3249 13.4829 80.7733C13.5729 80.4905 13.8747 80.334 14.1576 80.4242C14.4401 80.514 14.5964 80.816 14.5066 81.0987C14.3361 81.6347 14.176 82.1821 14.0305 82.7259C13.9663 82.9658 13.7492 83.1241 13.5121 83.1241ZM14.9378 78.8449C14.8713 78.8449 14.8036 78.8324 14.7379 78.806C14.4627 78.6956 14.3292 78.3828 14.4395 78.1076C14.6563 77.5679 14.8872 77.0286 15.1259 76.5044C15.2488 76.2346 15.5671 76.115 15.8373 76.2384C16.1073 76.3613 16.2264 76.6799 16.1035 76.9498C15.8713 77.459 15.6471 77.9833 15.4364 78.5078C15.3522 78.7174 15.1508 78.8449 14.9378 78.8449ZM16.864 74.7677C16.7768 74.7677 16.6884 74.7464 16.6064 74.7017C16.3463 74.5592 16.2511 74.2328 16.3935 73.9726C16.6725 73.4631 16.9658 72.9552 17.2654 72.4632C17.42 72.2098 17.7502 72.1294 18.0034 72.2838C18.2568 72.4381 18.3371 72.7685 18.183 73.0218C17.8918 73.4999 17.6067 73.9933 17.3355 74.4885C17.2379 74.6669 17.0539 74.7677 16.864 74.7677ZM19.261 70.9493C19.153 70.9493 19.0439 70.9169 18.9493 70.8494C18.708 70.6769 18.652 70.3416 18.8245 70.1002C19.1614 69.6283 19.5127 69.1591 19.8685 68.7056C20.0517 68.4723 20.389 68.4316 20.6227 68.6148C20.856 68.7978 20.8967 69.1355 20.7136 69.3688C20.3676 69.8095 20.0261 70.2656 19.6984 70.7243C19.5937 70.8712 19.4286 70.9493 19.261 70.9493ZM22.0937 67.4433C21.9647 67.4433 21.835 67.3971 21.732 67.3032C21.5128 67.1034 21.4972 66.7636 21.6969 66.5445C22.0852 66.1185 22.4895 65.6948 22.8988 65.2847C23.1081 65.0749 23.4484 65.0741 23.6582 65.2839C23.8682 65.4934 23.8686 65.8334 23.659 66.0435C23.2613 66.442 22.8682 66.8541 22.4908 67.268C22.3849 67.3843 22.2395 67.4433 22.0937 67.4433ZM25.3229 64.3001C25.1722 64.3001 25.0224 64.2371 24.9161 64.1141C24.7222 63.8896 24.7472 63.5505 24.9717 63.3567C25.4106 62.9778 25.8625 62.6054 26.3149 62.2496C26.5482 62.0658 26.8857 62.1069 27.0689 62.3398C27.2523 62.573 27.212 62.9106 26.9787 63.0939C26.5392 63.4395 26.1001 63.8014 25.6737 64.1696C25.5721 64.2573 25.4472 64.3001 25.3229 64.3001ZM28.9028 61.5665C28.7302 61.5665 28.5604 61.4832 28.4568 61.3291C28.2913 61.083 28.3565 60.7493 28.6026 60.5837C29.0819 60.2611 29.5749 59.9457 30.0677 59.6462C30.3216 59.4922 30.6515 59.5727 30.8057 59.8262C30.9597 60.0796 30.8791 60.41 30.6257 60.564C30.147 60.855 29.6681 61.1615 29.2022 61.4749C29.1102 61.5368 29.006 61.5665 28.9028 61.5665ZM32.7827 59.283C32.5872 59.283 32.3988 59.1759 32.304 58.9898C32.1692 58.7257 32.274 58.4022 32.5384 58.2675C33.0538 58.0045 33.5823 57.7501 34.1086 57.5114C34.379 57.3887 34.697 57.5087 34.8194 57.7787C34.9419 58.0489 34.8223 58.3671 34.5521 58.4896C34.0406 58.7216 33.5273 58.9688 33.0263 59.2243C32.9482 59.2641 32.8647 59.283 32.7827 59.283ZM64.4788 58.0904C64.4094 58.0904 64.3389 58.0768 64.271 58.0483C63.9234 57.9022 63.5659 57.7585 63.2082 57.6212C62.9313 57.5148 62.7931 57.2041 62.8994 56.9272C63.0056 56.6505 63.3161 56.5119 63.5934 56.6184C63.9614 56.7598 64.3293 56.9077 64.6872 57.0581C64.9606 57.1731 65.0891 57.4878 64.9742 57.7613C64.8877 57.9668 64.6887 58.0904 64.4788 58.0904ZM36.9133 57.4805C36.6945 57.4805 36.4887 57.3457 36.409 57.1282C36.3071 56.8497 36.4501 56.5411 36.7285 56.4391C37.2708 56.2404 37.8256 56.0513 38.3776 55.877C38.6608 55.7883 38.9623 55.9446 39.0514 56.2276C39.1408 56.5105 38.9839 56.8121 38.7009 56.9014C38.1645 57.0707 37.6251 57.2545 37.0982 57.4476C37.0371 57.4699 36.9748 57.4805 36.9133 57.4805ZM60.759 56.7532C60.7078 56.7532 60.6556 56.7459 60.604 56.7304C60.0668 56.5685 59.5175 56.4168 58.9715 56.2792C58.6839 56.2067 58.5093 55.9148 58.5819 55.6272C58.6543 55.3395 58.9461 55.1646 59.2337 55.2376C59.7957 55.3792 60.3608 55.5353 60.9137 55.7017C61.1977 55.7873 61.3586 56.0869 61.273 56.3708C61.2031 56.6034 60.9898 56.7532 60.759 56.7532ZM41.2298 56.1853C40.9864 56.1853 40.766 56.0188 40.7076 55.7717C40.6393 55.483 40.818 55.1938 41.1066 55.1255C41.6642 54.9937 42.2344 54.8724 42.8013 54.7649L42.8224 54.761C43.1153 54.7119 43.3916 54.9098 43.4405 55.2024C43.4893 55.495 43.2915 55.7716 42.9991 55.8204C42.4503 55.9247 41.8958 56.0427 41.3538 56.1708C41.3122 56.1806 41.2707 56.1853 41.2298 56.1853ZM56.3723 55.7152C56.3416 55.7152 56.3108 55.7125 56.2798 55.7071C55.7262 55.6109 55.1627 55.5263 54.6046 55.4554C54.3103 55.4181 54.102 55.1494 54.1394 54.8551C54.1765 54.5609 54.4456 54.3515 54.7398 54.3899C55.3141 54.4627 55.894 54.5499 56.4636 54.6489C56.7558 54.6997 56.9515 54.9777 56.9008 55.27C56.8554 55.5311 56.6286 55.7152 56.3723 55.7152ZM45.6706 55.4085C45.4013 55.4085 45.1691 55.2066 45.1378 54.9326C45.104 54.6379 45.3155 54.3716 45.61 54.3379C46.1852 54.2719 46.7693 54.2184 47.3455 54.1787C47.6401 54.1585 47.8979 54.3817 47.9183 54.6777C47.9386 54.9736 47.7152 55.2299 47.4194 55.2503C46.8591 55.2888 46.2916 55.3408 45.7325 55.405C45.7118 55.4073 45.691 55.4085 45.6706 55.4085ZM51.8916 55.2123C51.8823 55.2123 51.8729 55.2121 51.8634 55.2116C51.3033 55.1826 50.7338 55.1663 50.1705 55.1633C49.8739 55.1617 49.6347 54.92 49.6364 54.6233C49.6381 54.3277 49.8783 54.0892 50.1735 54.0892C50.1745 54.0892 50.1754 54.0892 50.1764 54.0892C50.7562 54.0924 51.3423 54.1092 51.9188 54.1389C52.215 54.1543 52.4428 54.4067 52.4275 54.7029C52.4126 54.9897 52.1754 55.2123 51.8916 55.2123Z" fill="white"/>
<path d="M66.6819 63.2427C66.5012 63.111 66.2567 63.1084 66.0733 63.2363L60.8397 66.8857C58.095 65.726 55.1456 64.9956 52.0878 64.7672L49.1004 59.1343C48.9957 58.9366 48.7771 58.8274 48.5561 58.8619L40.9954 60.0475C40.7744 60.0823 40.5998 60.2533 40.5605 60.4733L39.4409 66.7505C36.5997 67.904 34.0156 69.5021 31.7577 71.4463L25.6582 69.5743C25.4444 69.5087 25.2125 69.586 25.0808 69.7666L20.5729 75.9513C20.4412 76.1321 20.4386 76.3765 20.5665 76.5599L24.2159 81.7935C23.0562 84.5381 22.3258 87.4876 22.0975 90.5454L16.4644 93.5328C16.2668 93.6376 16.1575 93.8562 16.1921 94.0771L17.3778 101.638C17.4125 101.859 17.5835 102.034 17.8037 102.073L24.0809 103.192C25.2343 106.033 26.8324 108.618 28.7767 110.875L26.9046 116.975C26.839 117.189 26.9163 117.421 27.097 117.552L33.2816 122.06C33.4624 122.192 33.7068 122.195 33.8903 122.067L39.1239 118.417C41.8685 119.577 44.8179 120.307 47.8758 120.536L50.8632 126.169C50.968 126.366 51.1865 126.476 51.4074 126.441L58.9683 125.255C59.1892 125.221 59.3638 125.05 59.4031 124.83L60.5227 118.552C63.3639 117.399 65.9481 115.801 68.2059 113.857L74.3054 115.729C74.5192 115.794 74.7512 115.717 74.8829 115.536L79.3907 109.352C79.5223 109.171 79.5249 108.926 79.3971 108.743L75.7478 103.509C76.9076 100.765 77.6379 97.8153 77.8662 94.7575L83.4994 91.7701C83.6969 91.6655 83.8063 91.4468 83.7716 91.2258L82.5859 83.6652C82.5512 83.4443 82.3803 83.2696 82.1601 83.2303L75.8829 82.1107C74.7294 79.2697 73.1313 76.6855 71.1871 74.4275L73.0591 68.328C73.1247 68.1142 73.0475 67.8824 72.8668 67.7505L66.6819 63.2427Z" fill="#F3B51B"/>
<path d="M49.9917 99.7694C47.2235 99.7695 44.5858 98.1453 43.4337 95.442C41.8951 91.8313 43.5809 87.6422 47.1915 86.1037C48.9403 85.3585 50.8751 85.3388 52.639 86.0485C54.4028 86.7582 55.7844 88.1123 56.5298 89.8614C57.2751 91.6104 57.2948 93.5449 56.5849 95.3088C55.8753 97.0726 54.5211 98.4544 52.7722 99.1998C51.8648 99.5864 50.9208 99.7693 49.9917 99.7694ZM49.981 86.1749C49.1201 86.1749 48.2599 86.3489 47.4441 86.6965C44.1604 88.0957 42.6273 91.9056 44.0266 95.1894C45.426 98.4729 49.2358 100.006 52.5196 98.6068C54.1102 97.929 55.3418 96.6723 55.9873 95.0682C56.6326 93.464 56.6147 91.7046 55.9369 90.1139C55.2591 88.5232 54.0025 87.2918 52.3983 86.6463C51.6169 86.3319 50.7985 86.1749 49.981 86.1749Z" fill="#BDD0FB"/>
<path d="M49.8861 111.581C40.7986 111.581 32.7864 104.955 31.3353 95.7016C31.1811 94.7195 31.1067 93.7431 31.1067 92.7787C31.1071 83.6918 37.7333 75.6796 46.9864 74.2285C48.0814 74.0568 49.1899 73.9811 50.2919 74.0028C50.5223 74.0073 50.752 74.0162 50.9815 74.0292C51.1528 74.039 51.2854 74.181 51.2854 74.3506C51.2854 74.3567 51.2852 74.363 51.285 74.3692C51.2747 74.5469 51.1301 74.6816 50.9449 74.6726C49.6636 74.5997 48.3654 74.6646 47.0862 74.8652C46.0709 75.0244 45.088 75.2656 44.144 75.5806C36.9717 77.9739 32.0165 84.6393 31.7616 92.1695C31.7547 92.3721 31.7511 92.5754 31.7511 92.7792C31.7511 93.7104 31.8232 94.6535 31.9718 95.6018C33.3731 104.537 41.1114 110.936 49.8865 110.937C50.8179 110.937 51.7599 110.865 52.7083 110.716C61.6439 109.315 68.0429 101.577 68.0434 92.8023C68.0436 91.8709 67.9714 90.928 67.8229 89.9796C67.3132 86.7299 65.9355 83.6849 63.839 81.1738C63.7886 81.1134 63.7641 81.0401 63.7641 80.9673C63.7641 80.8752 63.8035 80.7836 63.8799 80.7199C64.0165 80.6057 64.2195 80.6241 64.3336 80.7607C66.5051 83.3614 67.9316 86.5148 68.4594 89.8798C68.6134 90.8618 68.6881 91.8383 68.6881 92.8027C68.6874 101.889 62.0612 109.902 52.8082 111.353C51.8268 111.507 50.8501 111.581 49.8861 111.581Z" fill="#BDD0FB"/>
<path d="M113.351 107.668L115.848 110.13C119.393 109.789 122.124 108.687 124.222 107.288C122.96 104.148 121.677 102.286 120.67 101.194C117.37 105.835 113.351 107.668 113.351 107.668Z" fill="#F3B51B"/>
<path d="M130.731 98.4547L124.838 89.2417C124.452 94.4385 122.696 98.3449 120.67 101.194C121.678 102.286 122.96 104.148 124.222 107.288C129.458 103.797 130.731 98.4547 130.731 98.4547Z" fill="#F3B51B"/>
<path d="M136.998 171.27C134.06 171.405 131.216 171.32 129.317 171.223C131.046 169.992 135.029 167.315 138.361 166.249L140.649 166.112C140.649 166.112 141.424 167.291 141.701 169.989C141.322 170.462 140.214 171.122 136.998 171.27Z" fill="url(#paint4_linear_2016_1380)"/>
<path d="M129.294 171.239C129.301 171.234 129.31 171.228 129.317 171.223C131.216 171.32 134.06 171.405 136.998 171.27C140.214 171.122 141.322 170.462 141.701 169.989C141.714 170.113 141.727 170.237 141.737 170.368C141.785 170.96 141.345 171.48 140.753 171.524C138.347 171.706 132.381 172.118 129.505 171.967C129.125 171.948 128.984 171.46 129.294 171.239Z" fill="url(#paint5_linear_2016_1380)"/>
<path d="M158.326 170.484C158.541 169.104 158.886 167.111 159.153 166.601C159.571 165.801 161.003 166.601 161.003 166.601C161.003 166.601 162.008 167.069 162.47 167.851C162.765 168.349 163.58 169.765 164.133 170.727C164.196 170.838 164.223 170.955 164.219 171.069L158.487 171.27C158.347 171.045 158.281 170.771 158.326 170.484Z" fill="url(#paint6_linear_2016_1380)"/>
<path d="M164.219 171.069C164.21 171.397 163.95 171.694 163.584 171.704L159.5 171.816C159.069 171.828 158.695 171.604 158.487 171.27L164.219 171.069Z" fill="url(#paint7_linear_2016_1380)"/>
<path d="M158.016 162.489C158.228 160.925 161.029 161.556 161.029 161.556C161.032 161.729 161.406 165.373 161.57 166.972C161.615 167.414 161.357 167.826 160.958 167.942C160.741 168.005 160.486 168.071 160.214 168.126C159.731 168.223 159.253 167.929 159.084 167.432C158.643 166.135 157.862 163.622 158.016 162.489Z" fill="url(#paint8_linear_2016_1380)"/>
<path d="M141.099 163.045C140.781 163.035 141.226 164.685 140.745 166.307C140.637 166.673 140.363 166.96 139.982 166.965C139.734 166.968 139.441 166.964 139.144 166.94C138.696 166.904 138.337 166.557 138.295 166.11L137.904 161.903L141.099 163.045Z" fill="url(#paint9_linear_2016_1380)"/>
<path d="M132.213 118.321C132.355 119.012 137.36 148.203 137.664 163.308C137.669 163.562 137.855 163.774 138.106 163.809C138.741 163.898 139.979 164.012 141.178 163.789C141.343 163.759 141.466 163.623 141.477 163.457C141.652 160.642 143.058 136.842 141.336 125.638C141.336 125.638 155.566 155.587 157.723 163.845C157.775 164.046 157.96 164.181 158.167 164.171C158.777 164.138 160.044 164.029 161.05 163.658C161.411 163.526 161.616 163.146 161.525 162.773C160.32 157.831 151.874 123.781 146.14 116.279L132.213 118.321Z" fill="url(#paint10_linear_2016_1380)"/>
<path d="M141.335 125.825C141.383 125.825 141.43 125.807 141.466 125.772C141.54 125.7 141.541 125.581 141.469 125.507L139.563 123.559C139.491 123.485 139.373 123.484 139.299 123.556C139.226 123.628 139.224 123.746 139.296 123.82L141.202 125.769C141.239 125.806 141.287 125.825 141.335 125.825Z" fill="url(#paint11_linear_2016_1380)"/>
<path d="M124.079 81.7739C127.734 80.8164 134.476 79.3169 139.844 79.637C141.077 79.7105 142.064 80.6852 142.134 81.9181C142.945 96.213 144.053 108.898 146.14 116.279C141.45 118.135 136.8 118.995 132.213 118.321C128.777 110.961 125.772 102.464 123.205 92.8134C123.205 92.8134 121.699 85.1164 123.162 82.551C123.39 82.1511 123.69 81.8759 124.079 81.7739Z" fill="#F3B51B"/>
<path d="M132.871 71.7603C132.871 71.7603 133.794 77.2669 134.069 79.8133C134.114 80.2272 133.897 80.6184 133.527 80.8089C132.518 81.3283 130.365 82.1647 128.018 81.3971C127.632 81.2707 127.378 80.8968 127.387 80.4903L127.548 73.139L132.871 71.7603Z" fill="url(#paint12_linear_2016_1380)"/>
<path d="M169.65 114.299L172.055 114.906C176.182 115.95 178.958 119.051 178.254 121.834L177.418 125.142C176.715 127.925 172.799 129.335 168.672 128.292L166.266 127.684C166.107 127.644 165.949 127.6 165.791 127.553L95.2654 106.451L97.0873 99.2435L169.17 114.188C169.33 114.221 169.491 114.258 169.65 114.299ZM168.614 117.601C165.507 116.815 162.61 117.675 162.143 119.521C161.676 121.368 163.817 123.501 166.924 124.287C170.031 125.072 172.929 124.212 173.395 122.366C173.862 120.519 171.721 118.386 168.614 117.601Z" fill="url(#paint13_linear_2016_1380)"/>
<path d="M73.6382 89.45L87.594 92.9775C88.5876 93.2287 89.4084 93.9268 89.8158 94.8673L91.9038 99.6883C92.4998 101.064 92.0942 102.669 90.9158 103.597L86.7878 106.847C85.9825 107.481 84.9286 107.705 83.9349 107.454L69.9791 103.926C67.874 103.394 66.0856 105.591 67.0794 107.522C69.457 112.14 73.8195 115.792 79.3723 117.196C89.4085 119.733 98.2906 113.652 100.731 103.999C103.171 94.345 98.2449 84.7741 88.2086 82.2373C82.6559 80.8338 77.0817 81.9748 72.7953 84.9085C71.0035 86.1348 71.5332 88.9179 73.6382 89.45Z" fill="url(#paint14_linear_2016_1380)"/>
<path d="M73.3056 90.7653L87.2614 94.2928C88.2551 94.544 89.0759 95.2421 89.4832 96.1826L91.5713 101.004C92.1673 102.38 91.7616 103.985 90.5833 104.912L86.4552 108.162C85.65 108.796 84.596 109.02 83.6024 108.769L69.6466 105.241C67.5416 104.709 65.753 106.906 66.7469 108.837C69.1245 113.455 73.487 117.108 79.0397 118.511C89.0759 121.048 97.958 114.967 100.398 105.314C102.838 95.6603 97.9124 86.0894 87.8761 83.5526C82.3234 82.1491 76.7491 83.2901 72.4627 86.2238C70.6709 87.4501 71.2006 90.2332 73.3056 90.7653Z" fill="url(#paint15_linear_2016_1380)"/>
<path d="M169.385 115.348L171.79 115.956C175.917 116.999 178.693 120.1 177.989 122.883L177.153 126.192C176.45 128.974 172.534 130.385 168.406 129.341L166.001 128.733C165.842 128.693 165.684 128.649 165.526 128.602L95.0002 107.5L96.8221 100.293L168.905 115.237C169.065 115.271 169.225 115.307 169.385 115.348ZM168.349 118.65C165.242 117.864 162.344 118.724 161.878 120.571C161.411 122.417 163.552 124.551 166.659 125.336C169.766 126.121 172.664 125.261 173.13 123.415C173.597 121.569 171.456 119.435 168.349 118.65Z" fill="url(#paint16_linear_2016_1380)"/>
<path d="M151.593 100.813C153.401 105.884 152.383 111.321 152.383 111.321L154.766 111.957C154.766 111.957 157.844 108.296 157.14 100.171C154.94 99.8357 152.88 100.351 151.593 100.813Z" fill="#F3B51B"/>
<path d="M157.139 100.171C157.06 99.2579 156.936 98.2909 156.751 97.2633C155.141 88.3033 143.654 81.411 140.951 79.9017C140.7 79.7613 140.394 79.9507 140.403 80.2385L140.787 92.4185C147.184 93.2784 150.212 96.9389 151.593 100.813C152.88 100.351 154.94 99.8357 157.139 100.171Z" fill="#F3B51B"/>
<path d="M108.326 112.137C107.879 112.013 107.516 111.696 107.327 111.273C106.962 110.453 106.549 109.14 107.429 108.74C108.74 108.144 111.123 110.587 111.123 110.587L112.287 112.473L113.351 112.991C112.376 113.26 110.495 112.812 108.326 112.137Z" fill="url(#paint17_linear_2016_1380)"/>
<path d="M152.542 110.13H149.596C149.596 110.13 151.986 111.563 152.065 113.07C152.145 114.578 151.117 117.7 150.636 118.549C150.11 119.479 157.306 117.165 154.766 110.13L152.542 110.13Z" fill="url(#paint18_linear_2016_1380)"/>
<path d="M125.89 64.5421C125.826 64.6587 124.455 73.3401 124.455 73.3401L129.429 74.0172L131.95 65.982C131.95 65.982 126.959 62.5904 125.89 64.5421Z" fill="url(#paint19_linear_2016_1380)"/>
<path d="M130.107 66.7812C130.248 66.9547 130.301 67.1822 130.251 67.4002L129.27 71.6714C129.255 71.7361 129.232 71.7978 129.2 71.8559C129.022 72.1765 128.373 73.1514 127.392 72.4302C126.556 71.8156 125.779 71.2622 125.103 71.1497C124.708 71.084 124.338 71.3594 124.277 71.7551C124.151 72.5701 123.931 74.2198 123.942 75.7129C123.944 76.0871 124.238 76.3943 124.611 76.4207C125.596 76.4902 127.524 76.5685 129.119 76.2827C129.381 76.2357 129.595 76.0492 129.678 75.7961C130.042 74.6828 131.075 71.5663 131.502 70.7314C131.899 69.9558 133.054 69.8239 133.588 69.8054C133.79 69.7984 133.979 69.7086 134.112 69.5554C134.51 69.0961 135.133 68.0721 133.933 67.0716C133.635 66.8228 133.6 66.3737 133.842 66.0704C134.277 65.5268 134.655 64.6489 133.724 63.7292C132.781 62.7982 131.715 63.0338 131.039 63.3487C130.74 63.4881 130.371 63.4276 130.157 63.1763C130.062 63.0646 129.921 62.9888 129.712 63.0127C129.319 63.0578 128.967 62.7992 128.919 62.4063C128.838 61.7325 128.477 60.9401 127.284 60.713C125.098 60.2965 124.014 62.4865 124.057 64.0235C124.1 65.5605 126.496 65.8773 127.854 65.6185C128.852 65.4284 129.718 66.3033 130.107 66.7812Z" fill="url(#paint20_linear_2016_1380)"/>
<path d="M131.124 72.3058C131.124 72.3058 131.163 69.6244 132.248 69.3696C133.332 69.1149 134.505 69.8963 133.582 71.5041C132.432 73.5041 131.124 72.3058 131.124 72.3058Z" fill="url(#paint21_linear_2016_1380)"/>
<defs>
<linearGradient id="paint0_linear_2016_1380" x1="101.965" y1="142.333" x2="65.4707" y2="32.8487" gradientUnits="userSpaceOnUse">
<stop stop-color="#09005D"/>
<stop offset="1" stop-color="#1A0F91"/>
</linearGradient>
<linearGradient id="paint1_linear_2016_1380" x1="162.093" y1="101.604" x2="162.981" y2="101.604" gradientUnits="userSpaceOnUse">
<stop stop-color="#DAE3FE"/>
<stop offset="1" stop-color="#E9EFFD"/>
</linearGradient>
<linearGradient id="paint2_linear_2016_1380" x1="110.329" y1="73.0036" x2="163.488" y2="73.0036" gradientUnits="userSpaceOnUse">
<stop stop-color="#DAE3FE"/>
<stop offset="1" stop-color="#E9EFFD"/>
</linearGradient>
<linearGradient id="paint3_linear_2016_1380" x1="98.164" y1="22.7169" x2="94.2749" y2="73.2749" gradientUnits="userSpaceOnUse">
<stop stop-color="#09005D"/>
<stop offset="1" stop-color="#1A0F91"/>
</linearGradient>
<linearGradient id="paint4_linear_2016_1380" x1="141.741" y1="168.726" x2="129.124" y2="168.726" gradientUnits="userSpaceOnUse">
<stop stop-color="#4F52FF"/>
<stop offset="1" stop-color="#4042E2"/>
</linearGradient>
<linearGradient id="paint5_linear_2016_1380" x1="135.433" y1="124.863" x2="135.433" y2="143.48" gradientUnits="userSpaceOnUse">
<stop stop-color="#09005D"/>
<stop offset="1" stop-color="#1A0F91"/>
</linearGradient>
<linearGradient id="paint6_linear_2016_1380" x1="164.22" y1="168.758" x2="158.312" y2="168.758" gradientUnits="userSpaceOnUse">
<stop stop-color="#4F52FF"/>
<stop offset="1" stop-color="#4042E2"/>
</linearGradient>
<linearGradient id="paint7_linear_2016_1380" x1="161.353" y1="124.862" x2="161.353" y2="143.48" gradientUnits="userSpaceOnUse">
<stop stop-color="#09005D"/>
<stop offset="1" stop-color="#1A0F91"/>
</linearGradient>
<linearGradient id="paint8_linear_2016_1380" x1="161.575" y1="164.787" x2="157.996" y2="164.787" gradientUnits="userSpaceOnUse">
<stop stop-color="#FEBBBA"/>
<stop offset="1" stop-color="#FF928E"/>
</linearGradient>
<linearGradient id="paint9_linear_2016_1380" x1="141.099" y1="164.434" x2="137.904" y2="164.434" gradientUnits="userSpaceOnUse">
<stop stop-color="#FEBBBA"/>
<stop offset="1" stop-color="#FF928E"/>
</linearGradient>
<linearGradient id="paint10_linear_2016_1380" x1="146.647" y1="155.031" x2="147.6" y2="96.2582" gradientUnits="userSpaceOnUse">
<stop stop-color="#4F52FF"/>
<stop offset="1" stop-color="#4042E2"/>
</linearGradient>
<linearGradient id="paint11_linear_2016_1380" x1="133.155" y1="115.319" x2="146.23" y2="132.224" gradientUnits="userSpaceOnUse">
<stop stop-color="#4F52FF"/>
<stop offset="1" stop-color="#4042E2"/>
</linearGradient>
<linearGradient id="paint12_linear_2016_1380" x1="131.561" y1="84.9951" x2="129.987" y2="75.2896" gradientUnits="userSpaceOnUse">
<stop stop-color="#FEBBBA"/>
<stop offset="1" stop-color="#FF928E"/>
</linearGradient>
<linearGradient id="paint13_linear_2016_1380" x1="140.999" y1="106.02" x2="157.897" y2="77.5209" gradientUnits="userSpaceOnUse">
<stop stop-color="#09005D"/>
<stop offset="1" stop-color="#1A0F91"/>
</linearGradient>
<linearGradient id="paint14_linear_2016_1380" x1="96.0507" y1="79.3677" x2="112.95" y2="50.8687" gradientUnits="userSpaceOnUse">
<stop stop-color="#09005D"/>
<stop offset="1" stop-color="#1A0F91"/>
</linearGradient>
<linearGradient id="paint15_linear_2016_1380" x1="322.952" y1="534.504" x2="300.344" y2="493.632" gradientUnits="userSpaceOnUse">
<stop stop-color="#09005D"/>
<stop offset="1" stop-color="#1A0F91"/>
</linearGradient>
<linearGradient id="paint16_linear_2016_1380" x1="374.391" y1="452.721" x2="354.523" y2="405.685" gradientUnits="userSpaceOnUse">
<stop stop-color="#09005D"/>
<stop offset="1" stop-color="#1A0F91"/>
</linearGradient>
<linearGradient id="paint17_linear_2016_1380" x1="107.72" y1="105.208" x2="120.428" y2="138.884" gradientUnits="userSpaceOnUse">
<stop stop-color="#FEBBBA"/>
<stop offset="1" stop-color="#FF928E"/>
</linearGradient>
<linearGradient id="paint18_linear_2016_1380" x1="147.562" y1="106.994" x2="162.024" y2="127.883" gradientUnits="userSpaceOnUse">
<stop stop-color="#FEBBBA"/>
<stop offset="1" stop-color="#FF928E"/>
</linearGradient>
<linearGradient id="paint19_linear_2016_1380" x1="127.597" y1="65.5439" x2="130.032" y2="82.0863" gradientUnits="userSpaceOnUse">
<stop stop-color="#FEBBBA"/>
<stop offset="1" stop-color="#FF928E"/>
</linearGradient>
<linearGradient id="paint20_linear_2016_1380" x1="132.811" y1="72.0527" x2="122.248" y2="66.2665" gradientUnits="userSpaceOnUse">
<stop stop-color="#09005D"/>
<stop offset="1" stop-color="#1A0F91"/>
</linearGradient>
<linearGradient id="paint21_linear_2016_1380" x1="124.884" y1="75.681" x2="147.706" y2="61.3118" gradientUnits="userSpaceOnUse">
<stop stop-color="#FEBBBA"/>
<stop offset="1" stop-color="#FF928E"/>
</linearGradient>
</defs>
</svg>
