<svg width="94" height="85" viewBox="0 0 94 85" fill="none" xmlns="http://www.w3.org/2000/svg">
<path fill-rule="evenodd" clip-rule="evenodd" d="M0 21.8925C0.253161 21.8222 0.28129 21.597 0.351613 21.386C0.478194 20.9358 0.576646 20.4715 0.773549 20.0353C1.5049 18.3751 2.75665 17.4043 4.55691 17.151C5.04916 17.0807 5.55549 17.0525 6.06181 17.0384C7.53858 17.0103 9.01536 16.9962 10.4921 16.9681C10.8016 16.9681 11.111 16.94 11.3782 16.9259C11.6314 16.6304 11.547 16.335 11.561 16.0676C11.6173 12.5502 11.6595 9.01869 11.7017 5.50125C11.7017 5.21986 11.7298 4.93846 11.7017 4.65707C11.6314 3.91137 11.9689 3.39079 12.5174 2.95463C13.3472 2.30742 14.2896 1.88533 15.3303 1.70242C16.2023 1.54765 17.0743 1.44917 17.9463 1.35068C19.4372 1.16777 20.9421 1.013 22.447 0.844167C22.6579 0.816027 22.883 0.801957 23.108 0.830097C24.9505 0.984864 26.807 1.13963 28.6494 1.28033C29.7183 1.36475 30.7732 1.44917 31.8421 1.53358C34.1627 1.71649 36.4834 1.8994 38.79 2.0823C39.7885 2.16672 40.6887 2.53254 41.4903 3.12347C42.3764 3.77067 42.8546 4.60079 42.8546 5.76858C42.8546 9.35637 42.9249 12.9442 42.9812 16.5179C42.9812 16.8555 42.9109 17.2073 43.1218 17.6012C43.7125 17.6434 44.3314 17.7138 44.9502 17.756C47.9882 17.9389 51.0402 18.1218 54.0781 18.2907C55.6533 18.3751 57.2145 18.4595 58.7897 18.5439C60.8291 18.6565 62.8684 18.769 64.9078 18.9097C65.3157 18.9379 65.7235 19.0223 66.1033 19.163C67.7629 19.7539 69.0568 20.8091 69.9288 22.3568C70.3367 23.0744 70.5477 23.8623 70.5477 24.6924C70.5477 26.6762 70.5617 28.6601 70.5758 30.6298C70.5758 30.9675 70.6039 31.3052 70.618 31.6851C70.8571 31.7132 71.0399 31.7695 71.2087 31.7695C74.978 31.7695 78.7613 31.7413 82.5306 31.7554C83.1917 31.7554 83.8527 31.8398 84.4997 31.9665C85.6951 32.2197 86.7219 32.7825 87.5798 33.683C89.2113 35.4276 90.8287 37.1863 92.5446 38.8606C93.5713 39.8596 93.6979 42.1107 92.7415 43.2785C91.2366 45.1357 89.8161 47.0492 88.3533 48.9486C83.4308 55.3645 78.5082 61.7662 73.5997 68.182C73.5012 68.3086 73.4028 68.4353 73.3184 68.5619C71.3634 71.0522 68.8599 72.6843 65.7657 73.4019C61.4198 74.4149 57.0738 75.3998 52.7279 76.3987C45.991 77.9464 39.2541 79.4941 32.5312 81.0277C28.0306 82.0548 23.5299 83.0959 19.0293 84.1371C18.4808 84.2637 17.9323 84.4185 17.3838 84.5311C15.7663 84.8406 14.1348 84.7843 12.5034 84.5733C9.99988 84.2356 7.58078 83.6165 5.232 82.6598C4.57097 82.3924 3.90994 82.0688 3.2911 81.7171C2.8129 81.4357 2.34878 81.084 1.92684 80.7181C1.20955 80.085 0.843871 79.269 0.829807 78.2982C0.829807 78.0449 0.829807 77.7916 0.829807 77.5384C0.731355 68.0413 0.632904 58.5442 0.534452 49.0471C0.478194 43.4474 0.407871 37.8476 0.337549 32.2479C0.323484 30.869 0.253161 29.4761 0.196903 28.0973C0.182839 27.7315 0.0843871 27.3656 0.028129 26.9858V21.8925H0ZM85.9905 43.2504C85.5826 43.2504 85.2732 43.2363 84.9638 43.2504C84.1762 43.2926 83.4026 43.363 82.615 43.4052C80.0412 43.5599 77.4674 43.7006 74.8936 43.8554C73.8247 43.9117 72.7558 43.982 71.6869 44.0524C69.2397 44.2071 66.7924 44.39 64.3452 44.5307C61.7714 44.6855 59.1976 44.8262 56.6238 44.981C55.5267 45.0513 54.4297 45.1217 53.3327 45.192C51.8559 45.2905 50.3932 45.389 48.9164 45.4875C47.0036 45.6141 45.0909 45.7126 43.1781 45.8533C40.8012 46.0362 38.7618 47.007 37.0741 48.6954C36.2865 49.4833 35.6395 50.3697 35.091 51.3264C34.6972 52.0018 34.2893 52.6771 33.8814 53.3525C28.8182 61.5692 23.755 69.7719 18.6777 77.9886C18.4948 78.2841 18.312 78.5795 18.1573 78.8891C17.7213 79.8318 17.9745 80.3383 18.9871 80.493C19.7607 80.6197 20.5483 80.6337 21.3359 80.4649C22.3767 80.2257 23.4174 79.9865 24.4582 79.7333C33.4454 77.6228 42.4327 75.4983 51.4199 73.3737C55.6111 72.3889 59.8024 71.418 63.9795 70.405C66.7643 69.7297 69.0427 68.2664 70.8008 65.9871C75.203 60.2889 79.6052 54.5906 84.0074 48.8924C84.7388 47.9497 85.4561 46.993 86.2015 46.0503C86.4124 45.783 86.4968 45.5156 86.4124 45.178C86.2718 44.573 86.1452 43.9539 85.9764 43.2363L85.9905 43.2504ZM39.2682 23.1869C39.24 23.0181 39.1838 22.807 39.1838 22.596C39.1416 20.8654 39.0994 19.1348 39.0853 17.4043C39.0572 15.0405 39.0712 12.6909 39.0572 10.3272C39.0572 9.98951 39.0572 9.63776 38.9869 9.30009C38.7759 8.03381 37.9602 7.31625 36.6662 7.2459C36.6381 7.2459 36.61 7.2459 36.5678 7.2459C35.316 7.16149 34.0643 7.09114 32.8125 7.00672C31.5889 6.9223 30.3653 6.79567 29.1558 6.71125C28.34 6.65497 27.5243 6.62683 26.7085 6.65497C25.6256 6.69718 24.8942 7.37253 24.6832 8.42776C24.6129 8.76544 24.6129 9.11718 24.6129 9.45485C24.6129 13.5069 24.6129 17.5731 24.5989 21.6252C24.5989 21.9347 24.5989 22.2583 24.5989 22.5679C24.5848 22.7789 24.5004 22.9759 24.4441 23.2432C24.0644 23.2573 23.7269 23.2854 23.3893 23.2854C21.9407 23.2854 20.492 23.2713 19.0574 23.2854C18.6496 23.2854 18.2276 23.3136 17.8479 23.398C16.357 23.7497 15.3725 24.7065 14.7959 26.0994C14.4443 26.9154 14.2755 27.7877 14.2614 28.6741C14.1911 33.2327 14.1208 37.7913 14.0645 42.3499C14.0364 44.0805 14.0364 45.8111 14.0083 47.5417C13.9661 50.0602 13.9098 52.5786 13.8676 55.0831C13.8676 55.3222 13.8958 55.5614 13.9098 55.9976C14.1348 55.6458 14.2614 55.4911 14.3599 55.3082C14.9225 54.3233 15.471 53.3384 16.0336 52.3535C18.523 47.8793 20.9983 43.3911 23.4878 38.9169C23.7128 38.5089 23.9659 38.1009 24.2754 37.7491C24.9364 37.0316 25.6115 36.314 26.3429 35.6809C28.6494 33.6689 31.3498 32.5855 34.4159 32.4589C36.2724 32.3745 38.1149 32.3604 39.9714 32.3323C43.3047 32.2619 46.638 32.2056 49.9572 32.1494C53.7546 32.079 57.5661 32.0087 61.3635 31.9524C63.0653 31.9242 64.7531 31.9102 66.4549 31.882C67.355 31.882 67.3831 31.8398 67.4113 30.9112C67.4394 30.1937 67.4675 29.462 67.4957 28.7445C67.58 26.9717 66.5111 25.213 64.8937 24.4954C64.6124 24.3688 64.303 24.2844 63.9936 24.2562C63.2763 24.1859 62.5449 24.1296 61.8276 24.1155C59.9149 24.0452 58.0021 23.9889 56.0753 23.9326C53.2764 23.8623 50.4776 23.7919 47.6928 23.7075C45.2174 23.6372 42.728 23.5668 40.2527 23.4965C39.9432 23.4965 39.6198 23.5105 39.3103 23.2573L39.2682 23.1869Z" fill="black"/>
<path fill-rule="evenodd" clip-rule="evenodd" d="M85.9905 43.2504C86.1452 43.968 86.2718 44.587 86.4265 45.192C86.5109 45.5297 86.4265 45.797 86.2155 46.0643C85.4842 47.007 84.7528 47.9497 84.0215 48.9064C79.6193 54.6047 75.2171 60.2889 70.8149 66.0012C69.0568 68.2805 66.7784 69.7437 63.9936 70.4191C59.8164 71.4321 55.6252 72.4029 51.434 73.3878C42.4467 75.5123 33.4595 77.6228 24.4723 79.7473C23.4315 79.9865 22.3907 80.2398 21.35 80.479C20.5764 80.6619 19.7888 80.6337 19.0012 80.5071C17.9885 80.3523 17.7354 79.8458 18.1714 78.9031C18.312 78.5936 18.5089 78.2981 18.6918 78.0027C23.755 69.7859 28.8182 61.5833 33.8955 53.3665C34.3034 52.6912 34.7113 52.0159 35.1051 51.3405C35.6676 50.3838 36.3006 49.4974 37.0882 48.7095C38.7759 47.0211 40.8153 46.0503 43.1922 45.8674C45.1049 45.7267 47.0177 45.6282 48.9305 45.5016C50.4073 45.4031 51.884 45.3046 53.3468 45.2061C54.4438 45.1357 55.5408 45.0654 56.6379 44.995C59.2117 44.8403 61.7855 44.6996 64.3593 44.5448C66.8065 44.39 69.2537 44.2212 71.701 44.0664C72.7699 43.9961 73.8388 43.9257 74.9077 43.8695C77.4815 43.7147 80.0553 43.574 82.6291 43.4192C83.4167 43.377 84.1903 43.3067 84.9779 43.2645C85.2873 43.2504 85.5967 43.2645 86.0046 43.2645L85.9905 43.2504Z" fill="#FED900"/>
<path fill-rule="evenodd" clip-rule="evenodd" d="M39.2681 23.1869C39.5775 23.4543 39.901 23.4261 40.2104 23.4261C42.6999 23.4965 45.1752 23.5668 47.6506 23.6372C50.4494 23.7075 53.2483 23.7779 56.033 23.8623C57.9458 23.9186 59.8586 23.9748 61.7854 24.0452C62.5027 24.0733 63.2341 24.1155 63.9514 24.1859C64.2608 24.214 64.5702 24.2984 64.8515 24.4251C66.4548 25.1426 67.5237 26.9154 67.4534 28.6741C67.4253 29.3917 67.3972 30.1233 67.369 30.8409C67.3409 31.7695 67.3128 31.8117 66.4127 31.8117C64.7108 31.8398 63.0231 31.8398 61.3213 31.882C57.5239 31.9383 53.7124 32.0087 49.915 32.079C46.5817 32.1353 43.2484 32.2056 39.9292 32.2619C38.0726 32.3041 36.2161 32.3041 34.3737 32.3885C31.3217 32.5292 28.6213 33.6126 26.3006 35.6105C25.5693 36.2437 24.8942 36.9612 24.2331 37.6788C23.9237 38.0164 23.6706 38.4385 23.4455 38.8466C20.9561 43.3207 18.4667 47.809 15.9913 52.2832C15.4428 53.2681 14.8802 54.2529 14.3177 55.2378C14.2192 55.4207 14.0926 55.5896 13.8676 55.9272C13.8395 55.4911 13.8113 55.2519 13.8254 55.0127C13.8676 52.4942 13.9238 49.9898 13.966 47.4713C13.9942 45.7407 13.9942 44.0102 14.0223 42.2796C14.0926 37.721 14.1489 33.1624 14.2192 28.6038C14.2333 27.7174 14.402 26.8451 14.7537 26.029C15.3444 24.6502 16.3148 23.6794 17.8057 23.3276C18.1995 23.2432 18.6214 23.2151 19.0152 23.2151C20.4639 23.2151 21.9125 23.2151 23.3471 23.2151C23.6846 23.2151 24.0362 23.1869 24.4019 23.1729C24.4582 22.9196 24.5426 22.7086 24.5566 22.4975C24.5848 22.188 24.5566 21.8644 24.5566 21.5548C24.5566 17.5027 24.5566 13.4366 24.5707 9.3845C24.5707 9.03276 24.5707 8.69508 24.641 8.35741C24.852 7.30218 25.5974 6.6409 26.6663 6.58462C27.482 6.54241 28.2978 6.58462 29.1135 6.6409C30.3371 6.71125 31.5608 6.85195 32.7703 6.93637C34.0221 7.02078 35.2738 7.09113 36.5255 7.17555C36.5537 7.17555 36.5959 7.17555 36.624 7.17555C37.9179 7.2459 38.7337 7.96346 38.9446 9.22973C39.0009 9.56741 39.015 9.91915 39.015 10.2568C39.015 12.6205 39.015 14.9702 39.0431 17.3339C39.0572 19.0645 39.0993 20.7951 39.1415 22.5256C39.1415 22.7367 39.1978 22.9477 39.2259 23.1166L39.2681 23.1869Z" fill="#F3B51B"/>
</svg>
