<svg width="178" height="32" viewBox="0 0 178 32" fill="none" xmlns="http://www.w3.org/2000/svg">
<path fill-rule="evenodd" clip-rule="evenodd" d="M0 9.49947C0.0883533 9.47492 0.0981703 9.39636 0.122713 9.3227C0.16689 9.16557 0.201249 9.00353 0.269968 8.85131C0.525211 8.27189 0.962069 7.93307 1.59036 7.84469C1.76216 7.82014 1.93886 7.81032 2.11557 7.80541C2.63096 7.79559 3.14636 7.79068 3.66175 7.78085C3.76974 7.78085 3.87773 7.77103 3.97099 7.76612C4.05934 7.66301 4.02989 7.55989 4.0348 7.46659C4.05443 6.23901 4.06916 5.00651 4.08389 3.77893C4.08389 3.68072 4.0937 3.58251 4.08389 3.48431C4.05934 3.22406 4.17715 3.04238 4.36858 2.89016C4.65818 2.66428 4.98705 2.51697 5.35028 2.45314C5.65461 2.39912 5.95894 2.36475 6.26327 2.33038C6.78357 2.26654 7.30878 2.21253 7.83399 2.1536C7.90762 2.14378 7.98616 2.13887 8.06469 2.14869C8.70771 2.20271 9.35563 2.25672 9.99865 2.30583C10.3717 2.33529 10.7398 2.36475 11.1129 2.39421C11.9228 2.45805 12.7327 2.52188 13.5377 2.58571C13.8862 2.61518 14.2003 2.74285 14.4801 2.94908C14.7894 3.17496 14.9562 3.46467 14.9562 3.87222C14.9562 5.12436 14.9808 6.3765 15.0004 7.62372C15.0004 7.74157 14.9759 7.86433 15.0495 8.00182C15.2557 8.01655 15.4716 8.0411 15.6876 8.05583C16.7479 8.11967 17.813 8.1835 18.8732 8.24243C19.423 8.27189 19.9678 8.30135 20.5176 8.33081C21.2293 8.3701 21.9411 8.40938 22.6528 8.45848C22.7951 8.4683 22.9375 8.49776 23.07 8.54687C23.6492 8.7531 24.1008 9.12138 24.4051 9.66152C24.5475 9.91194 24.6211 10.1869 24.6211 10.4766C24.6211 11.169 24.626 11.8613 24.6309 12.5488C24.6309 12.6666 24.6407 12.7845 24.6457 12.9171C24.7291 12.9269 24.7929 12.9465 24.8518 12.9465C26.1673 12.9465 27.4877 12.9367 28.8032 12.9416C29.0339 12.9416 29.2646 12.9711 29.4904 13.0153C29.9076 13.1037 30.2659 13.3001 30.5653 13.6143C31.1347 14.2232 31.6992 14.837 32.298 15.4213C32.6564 15.77 32.7005 16.5556 32.3668 16.9632C31.8415 17.6114 31.3458 18.2792 30.8353 18.9421C29.1173 21.1812 27.3993 23.4154 25.6863 25.6545C25.6519 25.6987 25.6175 25.7429 25.5881 25.7871C24.9058 26.6562 24.0321 27.2258 22.9522 27.4762C21.4355 27.8298 19.9188 28.1735 18.402 28.5221C16.0508 29.0623 13.6997 29.6024 11.3534 30.1376C9.78267 30.4961 8.21195 30.8595 6.64122 31.2228C6.44979 31.267 6.25836 31.321 6.06693 31.3603C5.50245 31.4683 4.93306 31.4487 4.36367 31.375C3.48995 31.2572 2.64569 31.0411 1.82597 30.7072C1.59527 30.6139 1.36457 30.501 1.14859 30.3782C0.981703 30.28 0.819722 30.1573 0.672467 30.0296C0.422132 29.8086 0.294511 29.5238 0.289602 29.185C0.289602 29.0966 0.289602 29.0083 0.289602 28.9199C0.255243 25.6054 0.220883 22.2909 0.186524 18.9764C0.16689 17.0221 0.142347 15.0678 0.117804 13.1135C0.112896 12.6323 0.0883533 12.1461 0.0687192 11.6649C0.0638107 11.5373 0.0294511 11.4096 0.00981703 11.277V9.49947H0ZM30.0107 16.9534C29.8683 16.9534 29.7603 16.9485 29.6523 16.9534C29.3775 16.9681 29.1075 16.9927 28.8326 17.0074C27.9344 17.0614 27.0361 17.1105 26.1378 17.1645C25.7648 17.1842 25.3918 17.2087 25.0187 17.2333C24.1646 17.2873 23.3105 17.3511 22.4565 17.4002C21.5582 17.4542 20.6599 17.5033 19.7617 17.5573C19.3788 17.5819 18.996 17.6064 18.6131 17.631C18.0977 17.6654 17.5872 17.6997 17.0718 17.7341C16.4043 17.7783 15.7367 17.8127 15.0691 17.8618C14.2396 17.9256 13.5279 18.2644 12.9388 18.8537C12.664 19.1287 12.4382 19.438 12.2467 19.7719C12.1093 20.0076 11.967 20.2433 11.8246 20.479C10.0575 23.3466 8.29048 26.2094 6.51851 29.077C6.4547 29.1801 6.39089 29.2832 6.33689 29.3913C6.18473 29.7203 6.27308 29.897 6.6265 29.951C6.89646 29.9952 7.17134 30.0001 7.44622 29.9412C7.80945 29.8577 8.17268 29.7743 8.53591 29.6859C11.6725 28.9493 14.809 28.2079 17.9455 27.4664C19.4083 27.1227 20.871 26.7839 22.3288 26.4303C23.3007 26.1946 24.0959 25.684 24.7095 24.8885C26.2458 22.8998 27.7822 20.9111 29.3186 18.9224C29.5738 18.5934 29.8241 18.2595 30.0843 17.9305C30.1579 17.8372 30.1874 17.7439 30.1579 17.6261C30.1088 17.4149 30.0647 17.1989 30.0058 16.9485L30.0107 16.9534ZM13.7046 9.95122C13.6948 9.8923 13.6751 9.81865 13.6751 9.74499C13.6604 9.14102 13.6457 8.53705 13.6408 7.93307C13.6309 7.10814 13.6359 6.28811 13.6309 5.46317C13.6309 5.34533 13.6309 5.22257 13.6064 5.10472C13.5328 4.66279 13.2481 4.41236 12.7965 4.38781C12.7867 4.38781 12.7769 4.38781 12.7621 4.38781C12.3253 4.35835 11.8884 4.3338 11.4516 4.30433C11.0245 4.27487 10.5975 4.23068 10.1754 4.20122C9.89066 4.18158 9.60597 4.17175 9.32127 4.18158C8.94332 4.19631 8.68807 4.432 8.61444 4.80028C8.5899 4.91813 8.5899 5.04088 8.5899 5.15873C8.5899 6.57291 8.5899 7.992 8.58499 9.40618C8.58499 9.5142 8.58499 9.62714 8.58499 9.73517C8.58009 9.80883 8.55063 9.87757 8.531 9.97087C8.39847 9.97578 8.28067 9.9856 8.16286 9.9856C7.65728 9.9856 7.15171 9.98069 6.65104 9.9856C6.50869 9.9856 6.36144 9.99542 6.22891 10.0249C5.7086 10.1476 5.36501 10.4815 5.16376 10.9677C5.04105 11.2525 4.98214 11.5569 4.97724 11.8663C4.95269 13.4572 4.92815 15.0482 4.90852 16.6391C4.8987 17.2431 4.8987 17.8471 4.88888 18.451C4.87416 19.33 4.85452 20.2089 4.8398 21.083C4.8398 21.1664 4.84961 21.2499 4.85452 21.4021C4.93306 21.2794 4.97723 21.2254 5.01159 21.1615C5.20794 20.8178 5.39937 20.4741 5.59571 20.1304C6.46452 18.5689 7.32841 17.0025 8.19722 15.441C8.27576 15.2986 8.36411 15.1562 8.4721 15.0334C8.7028 14.783 8.93841 14.5326 9.19365 14.3116C9.99865 13.6094 10.9411 13.2313 12.0111 13.1871C12.6591 13.1577 13.3021 13.1528 13.95 13.1429C15.1133 13.1184 16.2766 13.0988 17.435 13.0791C18.7603 13.0546 20.0906 13.03 21.4159 13.0104C22.0098 13.0005 22.5988 12.9956 23.1927 12.9858C23.5069 12.9858 23.5167 12.9711 23.5265 12.647C23.5363 12.3966 23.5462 12.1412 23.556 11.8908C23.5854 11.2721 23.2124 10.6583 22.6479 10.4079C22.5497 10.3637 22.4417 10.3342 22.3337 10.3244C22.0834 10.2999 21.8282 10.2802 21.5778 10.2753C20.9103 10.2508 20.2427 10.2311 19.5703 10.2115C18.5935 10.1869 17.6167 10.1624 16.6448 10.1329C15.7809 10.1084 14.9121 10.0838 14.0482 10.0593C13.9402 10.0593 13.8273 10.0642 13.7193 9.97578L13.7046 9.95122Z" fill="black"/>
<path fill-rule="evenodd" clip-rule="evenodd" d="M30.0106 16.9534C30.0646 17.2038 30.1087 17.4199 30.1627 17.631C30.1922 17.7488 30.1627 17.8421 30.0891 17.9354C29.8339 18.2644 29.5786 18.5934 29.3234 18.9273C27.787 20.916 26.2506 22.8998 24.7143 24.8934C24.1007 25.6889 23.3055 26.1995 22.3337 26.4352C20.8758 26.7888 19.4131 27.1276 17.9503 27.4713C14.8138 28.2128 11.6773 28.9493 8.54072 29.6908C8.17749 29.7743 7.81426 29.8627 7.45103 29.9461C7.18106 30.01 6.90618 30.0001 6.63131 29.9559C6.27789 29.9019 6.18954 29.7252 6.34171 29.3962C6.39079 29.2881 6.45951 29.185 6.52332 29.0819C8.29039 26.2143 10.0575 23.3515 11.8294 20.4839C11.9718 20.2482 12.1141 20.0125 12.2516 19.7768C12.4479 19.4429 12.6688 19.1336 12.9437 18.8586C13.5327 18.2693 14.2444 17.9305 15.074 17.8667C15.7415 17.8176 16.4091 17.7832 17.0766 17.739C17.592 17.7047 18.1074 17.6703 18.6179 17.6359C19.0008 17.6114 19.3836 17.5868 19.7665 17.5623C20.6648 17.5082 21.563 17.4591 22.4613 17.4051C23.3154 17.3511 24.1694 17.2922 25.0235 17.2382C25.3966 17.2136 25.7696 17.1891 26.1427 17.1694C27.0409 17.1154 27.9392 17.0663 28.8374 17.0123C29.1123 16.9976 29.3823 16.973 29.6572 16.9583C29.7651 16.9534 29.8731 16.9583 30.0155 16.9583L30.0106 16.9534Z" fill="#FED900"/>
<path fill-rule="evenodd" clip-rule="evenodd" d="M13.7045 9.95125C13.8125 10.0445 13.9254 10.0347 14.0334 10.0347C14.9022 10.0593 15.7661 10.0838 16.63 10.1084C17.6068 10.1329 18.5836 10.1575 19.5555 10.1869C20.2231 10.2066 20.8906 10.2262 21.5631 10.2508C21.8134 10.2606 22.0687 10.2753 22.319 10.2999C22.427 10.3097 22.535 10.3392 22.6331 10.3834C23.1927 10.6338 23.5658 11.2525 23.5412 11.8663C23.5314 12.1167 23.5216 12.372 23.5118 12.6225C23.5019 12.9466 23.4921 12.9613 23.178 12.9613C22.584 12.9711 21.995 12.9711 21.4011 12.9858C20.0758 13.0055 18.7456 13.03 17.4203 13.0546C16.257 13.0742 15.0937 13.0988 13.9352 13.1184C13.2873 13.1331 12.6394 13.1331 11.9964 13.1626C10.9312 13.2117 9.9888 13.5898 9.17889 14.2871C8.92365 14.508 8.68804 14.7585 8.45734 15.0089C8.34935 15.1267 8.261 15.2741 8.18246 15.4165C7.31365 16.9779 6.44485 18.5443 5.58095 20.1058C5.38952 20.4496 5.19317 20.7933 4.99683 21.137C4.96247 21.2008 4.9183 21.2598 4.83976 21.3776C4.82994 21.2254 4.82013 21.1419 4.82504 21.0584C4.83976 20.1795 4.8594 19.3054 4.87412 18.4265C4.88394 17.8225 4.88394 17.2186 4.89376 16.6146C4.9183 15.0236 4.93793 13.4327 4.96247 11.8417C4.96738 11.5324 5.02629 11.2279 5.149 10.9431C5.35516 10.4619 5.69384 10.1231 6.21415 10.0004C6.35158 9.97089 6.49884 9.96107 6.63628 9.96107C7.14186 9.96107 7.64743 9.96107 8.1481 9.96107C8.26591 9.96107 8.38862 9.95125 8.51624 9.94634C8.53587 9.85795 8.56532 9.7843 8.57023 9.71064C8.58005 9.60261 8.57023 9.48968 8.57023 9.38165C8.57023 7.96747 8.57023 6.54838 8.57514 5.1342C8.57514 5.01145 8.57514 4.8936 8.59969 4.77575C8.67331 4.40747 8.93346 4.17669 9.30651 4.15705C9.5912 4.14232 9.8759 4.15705 10.1606 4.17669C10.5876 4.20124 11.0147 4.25034 11.4368 4.2798C11.8737 4.30927 12.3105 4.33382 12.7474 4.36328C12.7572 4.36328 12.7719 4.36328 12.7817 4.36328C13.2333 4.38783 13.518 4.63826 13.5916 5.08019C13.6113 5.19804 13.6162 5.3208 13.6162 5.43865C13.6162 6.26358 13.6162 7.08361 13.626 7.90855C13.6309 8.51252 13.6456 9.11649 13.6604 9.72046C13.6604 9.79412 13.68 9.86777 13.6898 9.9267L13.7045 9.95125Z" fill="#F3B51B"/>
<path d="M41.321 23V5.54545H45.5398V12.5511H52.4176V5.54545H56.6278V23H52.4176V15.9858H45.5398V23H41.321ZM65.3935 23.2472C64.0241 23.2472 62.8423 22.9773 61.848 22.4375C60.8594 21.892 60.098 21.1165 59.5639 20.1108C59.0355 19.0994 58.7713 17.8977 58.7713 16.5057C58.7713 15.1534 59.0384 13.9716 59.5724 12.9602C60.1065 11.9432 60.8594 11.1534 61.831 10.5909C62.8026 10.0227 63.9474 9.73864 65.2656 9.73864C66.1974 9.73864 67.0497 9.88352 67.8224 10.1733C68.5952 10.4631 69.2628 10.892 69.8253 11.4602C70.3878 12.0284 70.8253 12.7301 71.1378 13.5653C71.4503 14.3949 71.6065 15.3466 71.6065 16.4205V17.4602H60.2287V15.0398H67.7287C67.723 14.5966 67.6179 14.2017 67.4134 13.8551C67.2088 13.5085 66.9276 13.2386 66.5696 13.0455C66.2173 12.8466 65.8111 12.7472 65.3509 12.7472C64.8849 12.7472 64.4673 12.8523 64.098 13.0625C63.7287 13.267 63.4361 13.5483 63.2202 13.9062C63.0043 14.2585 62.8906 14.6591 62.8793 15.108V17.571C62.8793 18.1051 62.9844 18.5739 63.1946 18.9773C63.4048 19.375 63.7031 19.6847 64.0895 19.9062C64.4759 20.1278 64.9361 20.2386 65.4702 20.2386C65.8395 20.2386 66.1747 20.1875 66.4759 20.0852C66.777 19.983 67.0355 19.8324 67.2514 19.6335C67.4673 19.4347 67.6293 19.1903 67.7372 18.9006L71.5639 19.0114C71.4048 19.8693 71.0554 20.6165 70.5156 21.2528C69.9815 21.8835 69.2798 22.375 68.4105 22.7273C67.5412 23.0739 66.5355 23.2472 65.3935 23.2472ZM77.9027 5.54545V23H73.7351V5.54545H77.9027ZM80.5554 27.9091V9.90909H84.6804V12.1506H84.8082C84.9787 11.7528 85.2202 11.3693 85.5327 11C85.8509 10.6307 86.2543 10.3295 86.7429 10.0966C87.2372 9.85795 87.8281 9.73864 88.5156 9.73864C89.4247 9.73864 90.2741 9.97727 91.0639 10.4545C91.8594 10.9318 92.5014 11.6676 92.9901 12.6619C93.4787 13.6562 93.723 14.9233 93.723 16.4631C93.723 17.946 93.4872 19.1875 93.0156 20.1875C92.5497 21.1875 91.919 21.9375 91.1236 22.4375C90.3338 22.9375 89.456 23.1875 88.4901 23.1875C87.831 23.1875 87.2599 23.0795 86.777 22.8636C86.294 22.6477 85.8878 22.3636 85.5582 22.0114C85.2344 21.6591 84.9844 21.2812 84.8082 20.8778H84.723V27.9091H80.5554ZM84.6378 16.4545C84.6378 17.1591 84.7315 17.7727 84.919 18.2955C85.1122 18.8182 85.3878 19.2244 85.7457 19.5142C86.1094 19.7983 86.544 19.9403 87.0497 19.9403C87.5611 19.9403 87.9957 19.7983 88.3537 19.5142C88.7116 19.2244 88.9815 18.8182 89.1634 18.2955C89.3509 17.7727 89.4446 17.1591 89.4446 16.4545C89.4446 15.75 89.3509 15.1392 89.1634 14.6222C88.9815 14.1051 88.7116 13.7045 88.3537 13.4205C88.0014 13.1364 87.5668 12.9943 87.0497 12.9943C86.5384 12.9943 86.1037 13.1335 85.7457 13.4119C85.3878 13.6903 85.1122 14.0881 84.919 14.6051C84.7315 15.1222 84.6378 15.7386 84.6378 16.4545ZM103.296 9.90909V12.9773H95.0376V9.90909H103.296ZM96.7678 6.77273H100.935V18.8835C100.935 19.1392 100.975 19.3466 101.055 19.5057C101.14 19.6591 101.262 19.7699 101.421 19.8381C101.58 19.9006 101.771 19.9318 101.992 19.9318C102.151 19.9318 102.319 19.9176 102.495 19.8892C102.677 19.8551 102.813 19.8267 102.904 19.804L103.535 22.8125C103.336 22.8693 103.055 22.9403 102.691 23.0256C102.333 23.1108 101.904 23.1648 101.404 23.1875C100.427 23.233 99.5888 23.1193 98.8899 22.8466C98.1967 22.5682 97.6655 22.1364 97.2962 21.5511C96.9325 20.9659 96.7564 20.2301 96.7678 19.3438V6.77273ZM111.393 23.2472C110.018 23.2472 108.836 22.9659 107.847 22.4034C106.864 21.8352 106.106 21.0455 105.572 20.0341C105.043 19.017 104.779 17.8381 104.779 16.4972C104.779 15.1506 105.043 13.9716 105.572 12.9602C106.106 11.9432 106.864 11.1534 107.847 10.5909C108.836 10.0227 110.018 9.73864 111.393 9.73864C112.768 9.73864 113.947 10.0227 114.93 10.5909C115.918 11.1534 116.677 11.9432 117.205 12.9602C117.739 13.9716 118.006 15.1506 118.006 16.4972C118.006 17.8381 117.739 19.017 117.205 20.0341C116.677 21.0455 115.918 21.8352 114.93 22.4034C113.947 22.9659 112.768 23.2472 111.393 23.2472ZM111.418 20.1023C111.918 20.1023 112.342 19.9489 112.688 19.642C113.035 19.3352 113.299 18.9091 113.481 18.3636C113.668 17.8182 113.762 17.1875 113.762 16.4716C113.762 15.7443 113.668 15.108 113.481 14.5625C113.299 14.017 113.035 13.5909 112.688 13.2841C112.342 12.9773 111.918 12.8239 111.418 12.8239C110.901 12.8239 110.464 12.9773 110.106 13.2841C109.754 13.5909 109.484 14.017 109.296 14.5625C109.114 15.108 109.023 15.7443 109.023 16.4716C109.023 17.1875 109.114 17.8182 109.296 18.3636C109.484 18.9091 109.754 19.3352 110.106 19.642C110.464 19.9489 110.901 20.1023 111.418 20.1023ZM126.252 23.2472C124.877 23.2472 123.695 22.9659 122.707 22.4034C121.724 21.8352 120.965 21.0455 120.431 20.0341C119.903 19.017 119.638 17.8381 119.638 16.4972C119.638 15.1506 119.903 13.9716 120.431 12.9602C120.965 11.9432 121.724 11.1534 122.707 10.5909C123.695 10.0227 124.877 9.73864 126.252 9.73864C127.627 9.73864 128.806 10.0227 129.789 10.5909C130.778 11.1534 131.536 11.9432 132.065 12.9602C132.599 13.9716 132.866 15.1506 132.866 16.4972C132.866 17.8381 132.599 19.017 132.065 20.0341C131.536 21.0455 130.778 21.8352 129.789 22.4034C128.806 22.9659 127.627 23.2472 126.252 23.2472ZM126.278 20.1023C126.778 20.1023 127.201 19.9489 127.548 19.642C127.894 19.3352 128.158 18.9091 128.34 18.3636C128.528 17.8182 128.621 17.1875 128.621 16.4716C128.621 15.7443 128.528 15.108 128.34 14.5625C128.158 14.017 127.894 13.5909 127.548 13.2841C127.201 12.9773 126.778 12.8239 126.278 12.8239C125.761 12.8239 125.323 12.9773 124.965 13.2841C124.613 13.5909 124.343 14.017 124.156 14.5625C123.974 15.108 123.883 15.7443 123.883 16.4716C123.883 17.1875 123.974 17.8182 124.156 18.3636C124.343 18.9091 124.613 19.3352 124.965 19.642C125.323 19.9489 125.761 20.1023 126.278 20.1023ZM139.168 5.54545V23H135.001V5.54545H139.168ZM153.25 13.9062L149.423 14.0085C149.384 13.7358 149.276 13.4943 149.099 13.2841C148.923 13.0682 148.693 12.9006 148.409 12.7812C148.131 12.6562 147.807 12.5938 147.438 12.5938C146.955 12.5938 146.543 12.6903 146.202 12.8835C145.866 13.0767 145.702 13.3381 145.707 13.6676C145.702 13.9233 145.804 14.1449 146.014 14.3324C146.23 14.5199 146.614 14.6705 147.165 14.7841L149.688 15.2614C150.994 15.5114 151.966 15.9261 152.602 16.5057C153.244 17.0852 153.568 17.8523 153.574 18.8068C153.568 19.7045 153.301 20.4858 152.773 21.1506C152.25 21.8153 151.534 22.3324 150.625 22.7017C149.716 23.0653 148.676 23.2472 147.506 23.2472C145.636 23.2472 144.162 22.8636 143.082 22.0966C142.009 21.3239 141.395 20.2898 141.241 18.9943L145.358 18.892C145.449 19.3693 145.685 19.733 146.065 19.983C146.446 20.233 146.932 20.358 147.523 20.358C148.057 20.358 148.491 20.2585 148.827 20.0597C149.162 19.8608 149.332 19.5966 149.338 19.267C149.332 18.9716 149.202 18.7358 148.946 18.5597C148.69 18.3778 148.29 18.2358 147.744 18.1335L145.46 17.6989C144.148 17.4602 143.17 17.0199 142.528 16.3778C141.886 15.7301 141.568 14.9062 141.574 13.9062C141.568 13.0312 141.801 12.2841 142.273 11.6648C142.744 11.0398 143.415 10.5625 144.284 10.233C145.153 9.90341 146.179 9.73864 147.361 9.73864C149.134 9.73864 150.531 10.1108 151.554 10.8551C152.577 11.5937 153.142 12.6108 153.25 13.9062Z" fill="black"/>
<path d="M159.945 24.5341C159.215 24.5341 158.518 24.1168 158.194 23.4111C157.752 22.4448 158.176 21.3032 159.143 20.8609C161.335 19.8575 162.641 17.2674 163.352 15.2717C164.193 12.907 164.421 10.7694 164.424 10.7481C164.532 9.69182 165.475 8.92304 166.532 9.03061C167.588 9.13819 168.357 10.0795 168.25 11.1357C168.24 11.2386 167.985 13.6869 167.006 16.4745C165.612 20.4417 163.505 23.094 160.743 24.3589C160.484 24.4776 160.211 24.5341 159.944 24.5341H159.945Z" fill="black"/>
<path d="M172.729 24.5341C172.461 24.5341 172.189 24.4776 171.93 24.3589C169.206 23.1125 167.041 20.3861 165.667 16.4745C164.688 13.6869 164.433 11.2386 164.423 11.1357C164.316 10.0785 165.087 9.13541 166.144 9.02876C167.2 8.92212 168.143 9.69182 168.251 10.7481C168.255 10.7796 168.484 12.9125 169.323 15.2717C170.033 17.2674 171.34 19.8575 173.531 20.8609C174.497 21.3032 174.922 22.4448 174.48 23.4111C174.156 24.1178 173.459 24.5341 172.729 24.5341Z" fill="black"/>
<path d="M159.943 24.5342C158.88 24.5342 158.019 23.6726 158.019 22.6099V16.3799C158.019 15.3172 158.88 14.4557 159.943 14.4557C161.006 14.4557 161.867 15.3172 161.867 16.3799V22.6099C161.867 23.6726 161.006 24.5342 159.943 24.5342Z" fill="black"/>
<path style="mix-blend-mode:screen" d="M166.337 12.8856C167.41 12.8856 168.28 12.0158 168.28 10.9428C168.28 9.86983 167.41 9 166.337 9C165.264 9 164.394 9.86983 164.394 10.9428C164.394 12.0158 165.264 12.8856 166.337 12.8856Z" fill="#F3B51B"/>
<path style="mix-blend-mode:screen" d="M172.73 24.5526C173.803 24.5526 174.673 23.6828 174.673 22.6098C174.673 21.5368 173.803 20.667 172.73 20.667C171.657 20.667 170.787 21.5368 170.787 22.6098C170.787 23.6828 171.657 24.5526 172.73 24.5526Z" fill="#F3B51B"/>
<path d="M159.943 12.8856C161.016 12.8856 161.886 12.0158 161.886 10.9428C161.886 9.86983 161.016 9 159.943 9C158.87 9 158 9.86983 158 10.9428C158 12.0158 158.87 12.8856 159.943 12.8856Z" fill="#F3B51B"/>
<path d="M88 29H173" stroke="#F3B51B" stroke-width="5" stroke-linecap="round"/>
</svg>
