<svg width="223" height="56" viewBox="0 0 223 56" fill="none" xmlns="http://www.w3.org/2000/svg">
<path d="M2.2017 39V9.90909H9.23295V21.5852H20.696V9.90909H27.7131V39H20.696V27.3097H9.23295V39H2.2017ZM42.3224 39.4119C40.0402 39.4119 38.0705 38.9621 36.4134 38.0625C34.7656 37.1534 33.4967 35.8608 32.6065 34.1847C31.7259 32.4991 31.2855 30.4962 31.2855 28.1761C31.2855 25.9223 31.7306 23.9527 32.6207 22.267C33.5109 20.572 34.7656 19.2557 36.3849 18.3182C38.0043 17.3712 39.9124 16.8977 42.1094 16.8977C43.6624 16.8977 45.0829 17.1392 46.3707 17.6222C47.6586 18.1051 48.7713 18.8201 49.7088 19.767C50.6463 20.714 51.3755 21.8835 51.8963 23.2756C52.4171 24.6581 52.6776 26.2443 52.6776 28.0341V29.767H33.7145V25.733H46.2145C46.205 24.9943 46.0298 24.3362 45.6889 23.7585C45.348 23.1809 44.8793 22.7311 44.2827 22.4091C43.6955 22.0777 43.0185 21.9119 42.2514 21.9119C41.4749 21.9119 40.7789 22.0871 40.1634 22.4375C39.5478 22.7784 39.0601 23.2472 38.7003 23.8438C38.3404 24.4309 38.151 25.0985 38.1321 25.8466V29.9517C38.1321 30.8419 38.3073 31.6231 38.6577 32.2955C39.008 32.9583 39.5052 33.4744 40.1491 33.8438C40.7931 34.2131 41.5601 34.3977 42.4503 34.3977C43.0658 34.3977 43.6245 34.3125 44.1264 34.142C44.6283 33.9716 45.0592 33.7206 45.419 33.3892C45.7789 33.0578 46.0488 32.6506 46.2287 32.1676L52.6065 32.3523C52.3414 33.7822 51.759 35.0275 50.8594 36.0881C49.9692 37.1392 48.7997 37.9583 47.3509 38.5455C45.902 39.1231 44.2259 39.4119 42.3224 39.4119ZM63.1712 9.90909V39H56.2251V9.90909H63.1712ZM67.5923 47.1818V17.1818H74.4673V20.9176H74.6804C74.9645 20.2547 75.367 19.6155 75.8878 19C76.4181 18.3845 77.0904 17.8826 77.9048 17.4943C78.7287 17.0966 79.7135 16.8977 80.8594 16.8977C82.3745 16.8977 83.7902 17.2955 85.1065 18.0909C86.4323 18.8864 87.5024 20.1127 88.3168 21.7699C89.1312 23.4271 89.5384 25.5388 89.5384 28.1051C89.5384 30.5767 89.1454 32.6458 88.3594 34.3125C87.5829 35.9792 86.5317 37.2292 85.206 38.0625C83.8897 38.8958 82.4266 39.3125 80.8168 39.3125C79.7183 39.3125 78.7666 39.1326 77.9616 38.7727C77.1567 38.4129 76.4796 37.9394 75.9304 37.3523C75.3906 36.7652 74.974 36.1354 74.6804 35.4631H74.5384V47.1818H67.5923ZM74.3963 28.0909C74.3963 29.2652 74.5526 30.2879 74.8651 31.1591C75.187 32.0303 75.6463 32.7074 76.2429 33.1903C76.849 33.6638 77.5734 33.9006 78.4162 33.9006C79.2685 33.9006 79.9929 33.6638 80.5895 33.1903C81.1861 32.7074 81.6359 32.0303 81.9389 31.1591C82.2514 30.2879 82.4077 29.2652 82.4077 28.0909C82.4077 26.9167 82.2514 25.8987 81.9389 25.0369C81.6359 24.1752 81.1861 23.5076 80.5895 23.0341C80.0024 22.5606 79.2779 22.3239 78.4162 22.3239C77.5639 22.3239 76.8395 22.5559 76.2429 23.0199C75.6463 23.4839 75.187 24.1468 74.8651 25.0085C74.5526 25.8703 74.3963 26.8977 74.3963 28.0909ZM105.494 17.1818V22.2955H91.7294V17.1818H105.494ZM94.6129 11.9545H101.559V32.1392C101.559 32.5653 101.625 32.911 101.758 33.1761C101.9 33.4318 102.103 33.6165 102.369 33.7301C102.634 33.8343 102.951 33.8864 103.32 33.8864C103.585 33.8864 103.865 33.8627 104.158 33.8153C104.461 33.7585 104.689 33.7112 104.84 33.6733L105.891 38.6875C105.56 38.7822 105.091 38.9006 104.485 39.0426C103.888 39.1847 103.174 39.2746 102.34 39.3125C100.711 39.3883 99.3146 39.1989 98.1499 38.7443C96.9946 38.2803 96.1091 37.5606 95.4936 36.5852C94.8875 35.6098 94.594 34.3835 94.6129 32.9062V11.9545ZM118.988 39.4119C116.696 39.4119 114.727 38.9432 113.079 38.0057C111.441 37.0587 110.176 35.7424 109.286 34.0568C108.406 32.3617 107.965 30.3968 107.965 28.1619C107.965 25.9176 108.406 23.9527 109.286 22.267C110.176 20.572 111.441 19.2557 113.079 18.3182C114.727 17.3712 116.696 16.8977 118.988 16.8977C121.28 16.8977 123.245 17.3712 124.883 18.3182C126.531 19.2557 127.795 20.572 128.675 22.267C129.566 23.9527 130.011 25.9176 130.011 28.1619C130.011 30.3968 129.566 32.3617 128.675 34.0568C127.795 35.7424 126.531 37.0587 124.883 38.0057C123.245 38.9432 121.28 39.4119 118.988 39.4119ZM119.031 34.1705C119.864 34.1705 120.569 33.9148 121.147 33.4034C121.725 32.892 122.165 32.1818 122.468 31.2727C122.781 30.3636 122.937 29.3125 122.937 28.1193C122.937 26.9072 122.781 25.8466 122.468 24.9375C122.165 24.0284 121.725 23.3182 121.147 22.8068C120.569 22.2955 119.864 22.0398 119.031 22.0398C118.169 22.0398 117.44 22.2955 116.843 22.8068C116.256 23.3182 115.806 24.0284 115.494 24.9375C115.191 25.8466 115.039 26.9072 115.039 28.1193C115.039 29.3125 115.191 30.3636 115.494 31.2727C115.806 32.1818 116.256 32.892 116.843 33.4034C117.44 33.9148 118.169 34.1705 119.031 34.1705ZM143.754 39.4119C141.462 39.4119 139.492 38.9432 137.844 38.0057C136.206 37.0587 134.942 35.7424 134.052 34.0568C133.171 32.3617 132.731 30.3968 132.731 28.1619C132.731 25.9176 133.171 23.9527 134.052 22.267C134.942 20.572 136.206 19.2557 137.844 18.3182C139.492 17.3712 141.462 16.8977 143.754 16.8977C146.045 16.8977 148.01 17.3712 149.648 18.3182C151.296 19.2557 152.56 20.572 153.441 22.267C154.331 23.9527 154.776 25.9176 154.776 28.1619C154.776 30.3968 154.331 32.3617 153.441 34.0568C152.56 35.7424 151.296 37.0587 149.648 38.0057C148.01 38.9432 146.045 39.4119 143.754 39.4119ZM143.796 34.1705C144.629 34.1705 145.335 33.9148 145.913 33.4034C146.49 32.892 146.931 32.1818 147.234 31.2727C147.546 30.3636 147.702 29.3125 147.702 28.1193C147.702 26.9072 147.546 25.8466 147.234 24.9375C146.931 24.0284 146.49 23.3182 145.913 22.8068C145.335 22.2955 144.629 22.0398 143.796 22.0398C142.934 22.0398 142.205 22.2955 141.609 22.8068C141.022 23.3182 140.572 24.0284 140.259 24.9375C139.956 25.8466 139.805 26.9072 139.805 28.1193C139.805 29.3125 139.956 30.3636 140.259 31.2727C140.572 32.1818 141.022 32.892 141.609 33.4034C142.205 33.9148 142.934 34.1705 143.796 34.1705ZM165.281 9.90909V39H158.335V9.90909H165.281ZM188.75 23.8438L182.372 24.0142C182.306 23.5597 182.126 23.1572 181.832 22.8068C181.539 22.447 181.155 22.1676 180.682 21.9688C180.218 21.7604 179.678 21.6562 179.062 21.6562C178.258 21.6562 177.571 21.8172 177.003 22.1392C176.444 22.4612 176.17 22.8968 176.179 23.446C176.17 23.8722 176.34 24.2415 176.69 24.554C177.05 24.8665 177.689 25.1174 178.608 25.3068L182.812 26.1023C184.991 26.5189 186.61 27.2102 187.67 28.1761C188.741 29.142 189.28 30.4205 189.29 32.0114C189.28 33.5076 188.835 34.8097 187.955 35.9176C187.083 37.0256 185.89 37.8873 184.375 38.5028C182.86 39.1089 181.127 39.4119 179.176 39.4119C176.061 39.4119 173.603 38.7727 171.804 37.4943C170.014 36.2064 168.991 34.483 168.736 32.3239L175.597 32.1534C175.748 32.9489 176.141 33.5549 176.776 33.9716C177.41 34.3883 178.22 34.5966 179.205 34.5966C180.095 34.5966 180.819 34.4309 181.378 34.0994C181.937 33.768 182.221 33.3277 182.23 32.7784C182.221 32.286 182.003 31.893 181.577 31.5994C181.151 31.2964 180.483 31.0597 179.574 30.8892L175.767 30.1648C173.58 29.767 171.951 29.0331 170.881 27.9631C169.811 26.8835 169.28 25.5104 169.29 23.8438C169.28 22.3854 169.669 21.1402 170.455 20.108C171.241 19.0663 172.358 18.2708 173.807 17.7216C175.256 17.1723 176.965 16.8977 178.935 16.8977C181.889 16.8977 184.219 17.518 185.923 18.7585C187.628 19.9896 188.57 21.6847 188.75 23.8438Z" fill="white"/>
<path d="M197.722 38.7428C196.7 38.7428 195.724 38.1587 195.271 37.1709C194.652 35.8184 195.247 34.2205 196.599 33.6014C199.668 32.197 201.497 28.5716 202.491 25.7784C203.668 22.4685 203.987 19.4766 203.991 19.4467C204.143 17.9683 205.463 16.8923 206.942 17.0428C208.42 17.1934 209.496 18.5109 209.347 19.9893C209.333 20.1334 208.976 23.5601 207.605 27.4619C205.654 33.0147 202.705 36.727 198.84 38.4974C198.476 38.6636 198.094 38.7428 197.721 38.7428H197.722Z" fill="#F3B51B"/>
<path d="M215.616 38.7428C215.241 38.7428 214.861 38.6636 214.497 38.4975C210.685 36.753 207.654 32.9368 205.732 27.4619C204.361 23.5601 204.004 20.1334 203.99 19.9893C203.841 18.5096 204.919 17.1895 206.399 17.0403C207.877 16.891 209.197 17.9683 209.348 19.4467C209.353 19.4909 209.674 22.4763 210.848 25.7784C211.843 28.5717 213.672 32.197 216.739 33.6014C218.091 34.2206 218.686 35.8184 218.067 37.1709C217.614 38.16 216.638 38.7428 215.616 38.7428Z" fill="#F3B51B"/>
<path d="M197.719 38.7428C196.232 38.7428 195.026 37.5369 195.026 36.0494V27.3295C195.026 25.842 196.232 24.6361 197.719 24.6361C199.207 24.6361 200.413 25.842 200.413 27.3295V36.0494C200.413 37.5369 199.207 38.7428 197.719 38.7428Z" fill="#F3B51B"/>
<path style="mix-blend-mode:screen" d="M206.669 22.4386C208.171 22.4386 209.388 21.2211 209.388 19.7193C209.388 18.2175 208.171 17 206.669 17C205.167 17 203.95 18.2175 203.95 19.7193C203.95 21.2211 205.167 22.4386 206.669 22.4386Z" fill="#FED900"/>
<path style="mix-blend-mode:screen" d="M215.617 38.7687C217.119 38.7687 218.337 37.5512 218.337 36.0494C218.337 34.5476 217.119 33.3301 215.617 33.3301C214.116 33.3301 212.898 34.5476 212.898 36.0494C212.898 37.5512 214.116 38.7687 215.617 38.7687Z" fill="#F3B51B"/>
<path d="M197.719 22.4386C199.221 22.4386 200.439 21.2211 200.439 19.7193C200.439 18.2175 199.221 17 197.719 17C196.217 17 195 18.2175 195 19.7193C195 21.2211 196.217 22.4386 197.719 22.4386Z" fill="#FED900"/>
<path d="M93 51H218" stroke="#F3B51B" stroke-width="9" stroke-linecap="round"/>
</svg>
